/* XPM */
static char *result[] = {
/* columns rows colors chars-per-pixel */
"64 64 4 1 ",
"  c gray8",
". c gray60",
"X c gray91",
"o c None",
/* pixels */
"oooooooooooooooooooooooooooooooooooooooooooooooooooooooooooooooo",
"oooooooooooooooooooooooooooooooooooooooooooooooooooooooooooooooo",
"oooooooooooooooooooooooooooooooooooooooooooooooooooooooooooooooo",
"oooooooooooooooooooooooooooooooooooooooooooooooooooooooooooooooo",
"oooooooooooo                                        oooooooooooo",
"oooooooooooo                                        oooooooooooo",
"oooooooooooo                                        oooooooooooo",
"oooooooooooo                                        oooooooooooo",
"oooooooo                                                oooooooo",
"oooooooo                                                oooooooo",
"oooooooo                                                oooooooo",
"oooooooo                                                oooooooo",
"oooo                                                        oooo",
"oooo                                                        oooo",
"oooo                                                        oooo",
"oooo                                                        oooo",
"oooo                                                        oooo",
"oooo                                                        oooo",
"oooo                                                        oooo",
"oooo                                                        oooo",
"oooooooo                                                oooooooo",
"oooooooo                                                oooooooo",
"oooooooo                                                oooooooo",
"oooooooo                                                oooooooo",
"oooooooo        XXXX                        XXXX        oooooooo",
"oooooooo        XXXX                        XXXX        oooooooo",
"oooooooo        XXXX                        XXXX        oooooooo",
"oooooooo        XXXX                        XXXX        oooooooo",
"oooo    XXXX    XXXXXXXXXXXXXXXXXXXXXXXXXXXXXXXX    XXXX    oooo",
"oooo    XXXX    XXXXXXXXXXXXXXXXXXXXXXXXXXXXXXXX    XXXX    oooo",
"oooo    XXXX    XXXXXXXXXXXXXXXXXXXXXXXXXXXXXXXX    XXXX    oooo",
"oooo    XXXX    XXXXXXXXXXXXXXXXXXXXXXXXXXXXXXXX    XXXX    oooo",
"oooo    XXXXXXXXXXXXXXXX    XXXXXXXX    XXXXXXXXXXXXXXXX    oooo",
"oooo    XXXXXXXXXXXXXXXX    XXXXXXXX    XXXXXXXXXXXXXXXX    oooo",
"oooo    XXXXXXXXXXXXXXXX    XXXXXXXX    XXXXXXXXXXXXXXXX    oooo",
"oooo    XXXXXXXXXXXXXXXX    XXXXXXXX    XXXXXXXXXXXXXXXX    oooo",
"oooo            XXXXXXXX    XXXXXXXX    XXXXXXXX        oooooooo",
"oooo            XXXXXXXX    XXXXXXXX    XXXXXXXX        oooooooo",
"oooo            XXXXXXXX    XXXXXXXX    XXXXXXXX        oooooooo",
"oooo            XXXXXXXX    XXXXXXXX    XXXXXXXX        oooooooo",
"oooo    XXXX        XXXXXXXX........XXXXXXXX    ....    oooooooo",
"oooo    XXXX        XXXXXXXX........XXXXXXXX    ....    oooooooo",
"oooo    XXXX        XXXXXXXX........XXXXXXXX    ....    oooooooo",
"oooo    XXXX        XXXXXXXX........XXXXXXXX    ....    oooooooo",
"oooooooo                                        XXXX    oooooooo",
"oooooooo                                        XXXX    oooooooo",
"oooooooo                                        XXXX    oooooooo",
"oooooooo                                        XXXX    oooooooo",
"oooooooooooo                            XXXXXXXX        oooooooo",
"oooooooooooo                            XXXXXXXX        oooooooo",
"oooooooooooo                            XXXXXXXX        oooooooo",
"oooooooooooo                            XXXXXXXX        oooooooo",
"oooooooooooooooo                        XXXXXXXX    oooooooooooo",
"oooooooooooooooo                        XXXXXXXX    oooooooooooo",
"oooooooooooooooo                        XXXXXXXX    oooooooooooo",
"oooooooooooooooo                        XXXXXXXX    oooooooooooo",
"oooooooooooooooo                    oooo        oooooooooooooooo",
"oooooooooooooooo                    oooo        oooooooooooooooo",
"oooooooooooooooo                    oooo        oooooooooooooooo",
"oooooooooooooooo                    oooo        oooooooooooooooo",
"oooooooooooooooooooo            oooooooooooooooooooooooooooooooo",
"oooooooooooooooooooo            oooooooooooooooooooooooooooooooo",
"oooooooooooooooooooo            oooooooooooooooooooooooooooooooo",
"oooooooooooooooooooo            oooooooooooooooooooooooooooooooo"
};
