/* XPM */
static char *result[] = {
/* columns rows colors chars-per-pixel */
"64 64 4 1 ",
"  c gray8",
". c gray60",
"X c gray91",
"o c None",
/* pixels */
"oooooooooooooooooooooooooooooooooooooooooooooooooooooooooooooooo",
"oooooooooooooooooooooooooooooooooooooooooooooooooooooooooooooooo",
"oooooooooooooooooooooooooooooooooooooooooooooooooooooooooooooooo",
"oooooooooooooooooooooooooooooooooooooooooooooooooooooooooooooooo",
"oooooooooooooooooooooooooooooooooooooooooooooooooooooooooooooooo",
"oooooooooooooooooooooooooooooooooooooooooooooooooooooooooooooooo",
"oooooooooooooooooooooooooooooooooooooooooooooooooooooooooooooooo",
"oooooooooooooooooooooooooooooooooooooooooooooooooooooooooooooooo",
"oooooooooooooooooooooooooooooooooooooooooooooooooooooooooooooooo",
"oooooooooooooooooooooooooooooooooooooooooooooooooooooooooooooooo",
"oooooooooooooooooooooooooooooooooooooooooooooooooooooooooooooooo",
"oooooooooooooooooooooooooooooooooooooooooooooooooooooooooooooooo",
"oooooooooooooooooooooooooooooooo....        ....oooooooooooooooo",
"oooooooooooooooooooooooooooooooo....        ....oooooooooooooooo",
"oooooooooooooooooooooooooooooooo....        ....oooooooooooooooo",
"oooooooooooooooooooooooooooooooo....        ....oooooooooooooooo",
"oooooooooooooooooooooooooooo    XXXXXXXXXXXXXXXX    oooooooooooo",
"oooooooooooooooooooooooooooo    XXXXXXXXXXXXXXXX    oooooooooooo",
"oooooooooooooooooooooooooooo    XXXXXXXXXXXXXXXX    oooooooooooo",
"oooooooooooooooooooooooooooo    XXXXXXXXXXXXXXXX    oooooooooooo",
"oooooooooooooooooooooooo    XXXXXXXXXXXXXXXXXXXXXXXX    oooooooo",
"oooooooooooooooooooooooo    XXXXXXXXXXXXXXXXXXXXXXXX    oooooooo",
"oooooooooooooooooooooooo    XXXXXXXXXXXXXXXXXXXXXXXX    oooooooo",
"oooooooooooooooooooooooo    XXXXXXXXXXXXXXXXXXXXXXXX    oooooooo",
"oooo....    oooooooo    XXXXXXXXXXXXXXXXXXXXXXXX    XXXX    oooo",
"oooo....    oooooooo    XXXXXXXXXXXXXXXXXXXXXXXX    XXXX    oooo",
"oooo....    oooooooo    XXXXXXXXXXXXXXXXXXXXXXXX    XXXX    oooo",
"oooo....    oooooooo    XXXXXXXXXXXXXXXXXXXXXXXX    XXXX    oooo",
"oooo    XXXX        XXXXXXXXXXXXXXXXXXXXXXXXXXXX    XXXX    oooo",
"oooo    XXXX        XXXXXXXXXXXXXXXXXXXXXXXXXXXX    XXXX    oooo",
"oooo    XXXX        XXXXXXXXXXXXXXXXXXXXXXXXXXXX    XXXX    oooo",
"oooo    XXXX        XXXXXXXXXXXXXXXXXXXXXXXXXXXX    XXXX    oooo",
"oooo    XXXX....XXXXXXXXXXXXXXXXXXXXXXXXXXXXXXXXXXXXXXXXXXXX    ",
"oooo    XXXX....XXXXXXXXXXXXXXXXXXXXXXXXXXXXXXXXXXXXXXXXXXXX    ",
"oooo    XXXX....XXXXXXXXXXXXXXXXXXXXXXXXXXXXXXXXXXXXXXXXXXXX    ",
"oooo    XXXX....XXXXXXXXXXXXXXXXXXXXXXXXXXXXXXXXXXXXXXXXXXXX    ",
"oooo    XXXXXXXXXXXXXXXXXXXXXXXXXXXXXXXXXXXXXXXXXXXX    XXXX....",
"oooo    XXXXXXXXXXXXXXXXXXXXXXXXXXXXXXXXXXXXXXXXXXXX    XXXX....",
"oooo    XXXXXXXXXXXXXXXXXXXXXXXXXXXXXXXXXXXXXXXXXXXX    XXXX....",
"oooo    XXXXXXXXXXXXXXXXXXXXXXXXXXXXXXXXXXXXXXXXXXXX    XXXX....",
"ooooooooooooXXXXXXXXoooo....XXXXXXXXXXXX....XXXXooooooooXXXXoooo",
"ooooooooooooXXXXXXXXoooo....XXXXXXXXXXXX....XXXXooooooooXXXXoooo",
"ooooooooooooXXXXXXXXoooo....XXXXXXXXXXXX....XXXXooooooooXXXXoooo",
"ooooooooooooXXXXXXXXoooo....XXXXXXXXXXXX....XXXXooooooooXXXXoooo",
"ooooXXXXXXXXooooooooooooXXXXXXXXXXXX....ooooooooXXXXXXXXoooooooo",
"ooooXXXXXXXXooooooooooooXXXXXXXXXXXX....ooooooooXXXXXXXXoooooooo",
"ooooXXXXXXXXooooooooooooXXXXXXXXXXXX....ooooooooXXXXXXXXoooooooo",
"ooooXXXXXXXXooooooooooooXXXXXXXXXXXX....ooooooooXXXXXXXXoooooooo",
"XXXXooooooooXXXXXXXXXXXXXXXXXXXXXXXXXXXXXXXXXXXXXXXXoooooooooooo",
"XXXXooooooooXXXXXXXXXXXXXXXXXXXXXXXXXXXXXXXXXXXXXXXXoooooooooooo",
"XXXXooooooooXXXXXXXXXXXXXXXXXXXXXXXXXXXXXXXXXXXXXXXXoooooooooooo",
"XXXXooooooooXXXXXXXXXXXXXXXXXXXXXXXXXXXXXXXXXXXXXXXXoooooooooooo",
"oooooooooooooooooooooooooooooooooooooooooooooooooooooooooooooooo",
"oooooooooooooooooooooooooooooooooooooooooooooooooooooooooooooooo",
"oooooooooooooooooooooooooooooooooooooooooooooooooooooooooooooooo",
"oooooooooooooooooooooooooooooooooooooooooooooooooooooooooooooooo",
"oooooooooooooooooooooooooooooooooooooooooooooooooooooooooooooooo",
"oooooooooooooooooooooooooooooooooooooooooooooooooooooooooooooooo",
"oooooooooooooooooooooooooooooooooooooooooooooooooooooooooooooooo",
"oooooooooooooooooooooooooooooooooooooooooooooooooooooooooooooooo",
"oooooooooooooooooooooooooooooooooooooooooooooooooooooooooooooooo",
"oooooooooooooooooooooooooooooooooooooooooooooooooooooooooooooooo",
"oooooooooooooooooooooooooooooooooooooooooooooooooooooooooooooooo",
"oooooooooooooooooooooooooooooooooooooooooooooooooooooooooooooooo"
};
