/* XPM */
static char *result[] = {
/* columns rows colors chars-per-pixel */
"64 64 4 1 ",
"  c gray8",
". c gray60",
"X c gray91",
"o c None",
/* pixels */
"oooooooooooooooooooooooooooooooooooooooooooooooooooooooooooooooo",
"oooooooooooooooooooooooooooooooooooooooooooooooooooooooooooooooo",
"oooooooooooooooooooooooooooooooooooooooooooooooooooooooooooooooo",
"oooooooooooooooooooooooooooooooooooooooooooooooooooooooooooooooo",
"oooooooooooooooooooooooooooooooooooooooooooooooooooooooooooooooo",
"oooooooooooooooooooooooooooooooooooooooooooooooooooooooooooooooo",
"oooooooooooooooooooooooooooooooooooooooooooooooooooooooooooooooo",
"oooooooooooooooooooooooooooooooooooooooooooooooooooooooooooooooo",
"oooooooooooooooooooooooo....        ....oooooooooooooooooooooooo",
"oooooooooooooooooooooooo....        ....oooooooooooooooooooooooo",
"oooooooooooooooooooooooo....        ....oooooooooooooooooooooooo",
"oooooooooooooooooooooooo....        ....oooooooooooooooooooooooo",
"oooooooooooooooooooo    XXXXXXXXXXXXXXXX    oooooooooooooooooooo",
"oooooooooooooooooooo    XXXXXXXXXXXXXXXX    oooooooooooooooooooo",
"oooooooooooooooooooo    XXXXXXXXXXXXXXXX    oooooooooooooooooooo",
"oooooooooooooooooooo    XXXXXXXXXXXXXXXX    oooooooooooooooooooo",
"ooooooooXXXX....    XXXXXXXXXXXXXXXXXXXXXXXX    ....XXXXoooooooo",
"ooooooooXXXX....    XXXXXXXXXXXXXXXXXXXXXXXX    ....XXXXoooooooo",
"ooooooooXXXX....    XXXXXXXXXXXXXXXXXXXXXXXX    ....XXXXoooooooo",
"ooooooooXXXX....    XXXXXXXXXXXXXXXXXXXXXXXX    ....XXXXoooooooo",
"ooooXXXXoooo    XXXXXXXXXXXXXXXXXXXXXXXXXXXXXXXX    ooooXXXXoooo",
"ooooXXXXoooo    XXXXXXXXXXXXXXXXXXXXXXXXXXXXXXXX    ooooXXXXoooo",
"ooooXXXXoooo    XXXXXXXXXXXXXXXXXXXXXXXXXXXXXXXX    ooooXXXXoooo",
"ooooXXXXoooo    XXXXXXXXXXXXXXXXXXXXXXXXXXXXXXXX    ooooXXXXoooo",
"ooooXXXXoooo....XXXXXXXXXXXXXXXXXXXXXXXXXXXXXXXX....ooooXXXXoooo",
"ooooXXXXoooo....XXXXXXXXXXXXXXXXXXXXXXXXXXXXXXXX....ooooXXXXoooo",
"ooooXXXXoooo....XXXXXXXXXXXXXXXXXXXXXXXXXXXXXXXX....ooooXXXXoooo",
"ooooXXXXoooo....XXXXXXXXXXXXXXXXXXXXXXXXXXXXXXXX....ooooXXXXoooo",
"oooo    ....XXXXXXXXXXXXXXXXXXXXXXXXXXXXXXXXXXXXXXXX....    oooo",
"oooo    ....XXXXXXXXXXXXXXXXXXXXXXXXXXXXXXXXXXXXXXXX....    oooo",
"oooo    ....XXXXXXXXXXXXXXXXXXXXXXXXXXXXXXXXXXXXXXXX....    oooo",
"oooo    ....XXXXXXXXXXXXXXXXXXXXXXXXXXXXXXXXXXXXXXXX....    oooo",
"    XXXXXXXXXXXXXXXXXXXXXXXXXXXXXXXXXXXXXXXXXXXXXXXXXXXXXXXX    ",
"    XXXXXXXXXXXXXXXXXXXXXXXXXXXXXXXXXXXXXXXXXXXXXXXXXXXXXXXX    ",
"    XXXXXXXXXXXXXXXXXXXXXXXXXXXXXXXXXXXXXXXXXXXXXXXXXXXXXXXX    ",
"    XXXXXXXXXXXXXXXXXXXXXXXXXXXXXXXXXXXXXXXXXXXXXXXXXXXXXXXX    ",
"....        ....XXXX....                ....XXXX....        ....",
"....        ....XXXX....                ....XXXX....        ....",
"....        ....XXXX....                ....XXXX....        ....",
"....        ....XXXX....                ....XXXX....        ....",
"ooooooooXXXXXXXXoooo    XXXXXXXXXXXXXXXX    ooooXXXXXXXXoooooooo",
"ooooooooXXXXXXXXoooo    XXXXXXXXXXXXXXXX    ooooXXXXXXXXoooooooo",
"ooooooooXXXXXXXXoooo    XXXXXXXXXXXXXXXX    ooooXXXXXXXXoooooooo",
"ooooooooXXXXXXXXoooo    XXXXXXXXXXXXXXXX    ooooXXXXXXXXoooooooo",
"ooooooooooooXXXXXXXX....    XXXXXXXX    ....XXXXXXXXoooooooooooo",
"ooooooooooooXXXXXXXX....    XXXXXXXX    ....XXXXXXXXoooooooooooo",
"ooooooooooooXXXXXXXX....    XXXXXXXX    ....XXXXXXXXoooooooooooo",
"ooooooooooooXXXXXXXX....    XXXXXXXX    ....XXXXXXXXoooooooooooo",
"ooooXXXXooooooooooooXXXXoooo........ooooXXXXooooooooooooXXXXoooo",
"ooooXXXXooooooooooooXXXXoooo........ooooXXXXooooooooooooXXXXoooo",
"ooooXXXXooooooooooooXXXXoooo........ooooXXXXooooooooooooXXXXoooo",
"ooooXXXXooooooooooooXXXXoooo........ooooXXXXooooooooooooXXXXoooo",
"ooooooooXXXXooooooooooooooooooooooooooooooooooooooooXXXXoooooooo",
"ooooooooXXXXooooooooooooooooooooooooooooooooooooooooXXXXoooooooo",
"ooooooooXXXXooooooooooooooooooooooooooooooooooooooooXXXXoooooooo",
"ooooooooXXXXooooooooooooooooooooooooooooooooooooooooXXXXoooooooo",
"ooooooooooooXXXXXXXXooooooooooooooooooooooooXXXXXXXXoooooooooooo",
"ooooooooooooXXXXXXXXooooooooooooooooooooooooXXXXXXXXoooooooooooo",
"ooooooooooooXXXXXXXXooooooooooooooooooooooooXXXXXXXXoooooooooooo",
"ooooooooooooXXXXXXXXooooooooooooooooooooooooXXXXXXXXoooooooooooo",
"oooooooooooooooooooooooooooooooooooooooooooooooooooooooooooooooo",
"oooooooooooooooooooooooooooooooooooooooooooooooooooooooooooooooo",
"oooooooooooooooooooooooooooooooooooooooooooooooooooooooooooooooo",
"oooooooooooooooooooooooooooooooooooooooooooooooooooooooooooooooo"
};
