/* XPM */
static char *result[] = {
/* columns rows colors chars-per-pixel */
"64 64 4 1 ",
"  c gray8",
". c gray60",
"X c gray91",
"o c None",
/* pixels */
"oooooooooooooooooooooooooooooooooooooooooooooooooooooooooooooooo",
"oooooooooooooooooooooooooooooooooooooooooooooooooooooooooooooooo",
"oooooooooooooooooooooooooooooooooooooooooooooooooooooooooooooooo",
"oooooooooooooooooooooooooooooooooooooooooooooooooooooooooooooooo",
"oooooooooooooooooooooooooooooooooooooooooooooooooooooooooooooooo",
"oooooooooooooooooooooooooooooooooooooooooooooooooooooooooooooooo",
"oooooooooooooooooooooooooooooooooooooooooooooooooooooooooooooooo",
"oooooooooooooooooooooooooooooooooooooooooooooooooooooooooooooooo",
"oooooooooooooooooooooooooooooooo....        ....oooooooooooooooo",
"oooooooooooooooooooooooooooooooo....        ....oooooooooooooooo",
"oooooooooooooooooooooooooooooooo....        ....oooooooooooooooo",
"oooooooooooooooooooooooooooooooo....        ....oooooooooooooooo",
"oooooooooooooooooooooooooooo    XXXXXXXXXXXXXXXX    oooooooooooo",
"oooooooooooooooooooooooooooo    XXXXXXXXXXXXXXXX    oooooooooooo",
"oooooooooooooooooooooooooooo    XXXXXXXXXXXXXXXX    oooooooooooo",
"oooooooooooooooooooooooooooo    XXXXXXXXXXXXXXXX    oooooooooooo",
"oooooooooooooooooooooooo    XXXXXXXXXXXXXXXXXXXXXXXX    oooooooo",
"oooooooooooooooooooooooo    XXXXXXXXXXXXXXXXXXXXXXXX    oooooooo",
"oooooooooooooooooooooooo    XXXXXXXXXXXXXXXXXXXXXXXX    oooooooo",
"oooooooooooooooooooooooo    XXXXXXXXXXXXXXXXXXXXXXXX    oooooooo",
"....    oooooooooooo    XXXXXXXXXXXXXXXXXXXXXXXX    XXXX    oooo",
"....    oooooooooooo    XXXXXXXXXXXXXXXXXXXXXXXX    XXXX    oooo",
"....    oooooooooooo    XXXXXXXXXXXXXXXXXXXXXXXX    XXXX    oooo",
"....    oooooooooooo    XXXXXXXXXXXXXXXXXXXXXXXX    XXXX    oooo",
"    XXXX    oooo    XXXXXXXXXXXXXXXXXXXXXXXXXXXX    XXXX    oooo",
"    XXXX    oooo    XXXXXXXXXXXXXXXXXXXXXXXXXXXX    XXXX    oooo",
"    XXXX    oooo    XXXXXXXXXXXXXXXXXXXXXXXXXXXX    XXXX    oooo",
"    XXXX    oooo    XXXXXXXXXXXXXXXXXXXXXXXXXXXX    XXXX    oooo",
"    XXXX....    XXXXXXXXXXXXXXXXXXXXXXXXXXXXXXXXXXXXXXXXXXXX    ",
"    XXXX....    XXXXXXXXXXXXXXXXXXXXXXXXXXXXXXXXXXXXXXXXXXXX    ",
"    XXXX....    XXXXXXXXXXXXXXXXXXXXXXXXXXXXXXXXXXXXXXXXXXXX    ",
"    XXXX....    XXXXXXXXXXXXXXXXXXXXXXXXXXXXXXXXXXXXXXXXXXXX    ",
"    XXXXXXXXXXXXXXXXXXXXXXXXXXXX....XXXXXXXX....XXXX....XXXX....",
"    XXXXXXXXXXXXXXXXXXXXXXXXXXXX....XXXXXXXX....XXXX....XXXX....",
"    XXXXXXXXXXXXXXXXXXXXXXXXXXXX....XXXXXXXX....XXXX....XXXX....",
"    XXXXXXXXXXXXXXXXXXXXXXXXXXXX....XXXXXXXX....XXXX....XXXX....",
"    XXXX        XXXXXXXXXXXXXXXX....XXXXXXXX....XXXXXXXX....oooo",
"    XXXX        XXXXXXXXXXXXXXXX....XXXXXXXX....XXXXXXXX....oooo",
"    XXXX        XXXXXXXXXXXXXXXX....XXXXXXXX....XXXXXXXX....oooo",
"    XXXX        XXXXXXXXXXXXXXXX....XXXXXXXX....XXXXXXXX....oooo",
"....    oooooooo....        ........XXXXXXXX....    ....ooooXXXX",
"....    oooooooo....        ........XXXXXXXX....    ....ooooXXXX",
"....    oooooooo....        ........XXXXXXXX....    ....ooooXXXX",
"....    oooooooo....        ........XXXXXXXX....    ....ooooXXXX",
"ooooXXXXXXXXXXXXXXXXXXXXXXXXoooooooo........ooooooooooooXXXXoooo",
"ooooXXXXXXXXXXXXXXXXXXXXXXXXoooooooo........ooooooooooooXXXXoooo",
"ooooXXXXXXXXXXXXXXXXXXXXXXXXoooooooo........ooooooooooooXXXXoooo",
"ooooXXXXXXXXXXXXXXXXXXXXXXXXoooooooo........ooooooooooooXXXXoooo",
"ooooooooooooooooooooooooooooXXXXXXXXXXXXXXXXXXXXXXXXoooooooooooo",
"ooooooooooooooooooooooooooooXXXXXXXXXXXXXXXXXXXXXXXXoooooooooooo",
"ooooooooooooooooooooooooooooXXXXXXXXXXXXXXXXXXXXXXXXoooooooooooo",
"ooooooooooooooooooooooooooooXXXXXXXXXXXXXXXXXXXXXXXXoooooooooooo",
"oooooooooooooooooooooooooooooooooooooooooooooooooooooooooooooooo",
"oooooooooooooooooooooooooooooooooooooooooooooooooooooooooooooooo",
"oooooooooooooooooooooooooooooooooooooooooooooooooooooooooooooooo",
"oooooooooooooooooooooooooooooooooooooooooooooooooooooooooooooooo",
"oooooooooooooooooooooooooooooooooooooooooooooooooooooooooooooooo",
"oooooooooooooooooooooooooooooooooooooooooooooooooooooooooooooooo",
"oooooooooooooooooooooooooooooooooooooooooooooooooooooooooooooooo",
"oooooooooooooooooooooooooooooooooooooooooooooooooooooooooooooooo",
"oooooooooooooooooooooooooooooooooooooooooooooooooooooooooooooooo",
"oooooooooooooooooooooooooooooooooooooooooooooooooooooooooooooooo",
"oooooooooooooooooooooooooooooooooooooooooooooooooooooooooooooooo",
"oooooooooooooooooooooooooooooooooooooooooooooooooooooooooooooooo"
};
