/* XPM */
static char *result[] = {
/* columns rows colors chars-per-pixel */
"64 64 4 1 ",
"  c #FFEFFF",
". c #181010",
"X c #A5D6FF",
"o c #ADE75A",
/* pixels */
"                        ....................                    ",
"                        ....................                    ",
"                        ....................                    ",
"                        ....................                    ",
"                ........XXXXooooooooooooXXXX........            ",
"                ........XXXXooooooooooooXXXX........            ",
"                ........XXXXooooooooooooXXXX........            ",
"                ........XXXXooooooooooooXXXX........            ",
"            ....XXXXoooo                    ooooXXXX....        ",
"            ....XXXXoooo                    ooooXXXX....        ",
"            ....XXXXoooo                    ooooXXXX....        ",
"            ....XXXXoooo                    ooooXXXX....        ",
"        ....XXXX                                    XXXX....    ",
"        ....XXXX                                    XXXX....    ",
"        ....XXXX                                    XXXX....    ",
"        ....XXXX                                    XXXX....    ",
"        ....oooo                                    oooo....    ",
"        ....oooo                                    oooo....    ",
"        ....oooo                                    oooo....    ",
"        ....oooo                                    oooo....    ",
"        ....XXXXoooooooo                    ooooooooXXXX....    ",
"        ....XXXXoooooooo                    ooooooooXXXX....    ",
"        ....XXXXoooooooo                    ooooooooXXXX....    ",
"        ....XXXXoooooooo                    ooooooooXXXX....    ",
"        ....XXXXooooXXXXooooooooooooooooooooXXXXooooXXXX....    ",
"        ....XXXXooooXXXXooooooooooooooooooooXXXXooooXXXX....    ",
"        ....XXXXooooXXXXooooooooooooooooooooXXXXooooXXXX....    ",
"        ....XXXXooooXXXXooooooooooooooooooooXXXXooooXXXX....    ",
"    oooo....XXXXooooXXXXXXXX            XXXXXXXXooooXXXX....    ",
"    oooo....XXXXooooXXXXXXXX            XXXXXXXXooooXXXX....    ",
"    oooo....XXXXooooXXXXXXXX            XXXXXXXXooooXXXX....    ",
"    oooo....XXXXooooXXXXXXXX            XXXXXXXXooooXXXX....    ",
"oooooooo....ooooooooXXXXXXXX            XXXXXXXXoooooooo....    ",
"oooooooo....ooooooooXXXXXXXX            XXXXXXXXoooooooo....    ",
"oooooooo....ooooooooXXXXXXXX            XXXXXXXXoooooooo....    ",
"oooooooo....ooooooooXXXXXXXX            XXXXXXXXoooooooo....    ",
"ooooXXXX....oooooooooooooooo            oooooooooooooooo....    ",
"ooooXXXX....oooooooooooooooo            oooooooooooooooo....    ",
"ooooXXXX....oooooooooooooooo            oooooooooooooooo....    ",
"ooooXXXX....oooooooooooooooo            oooooooooooooooo....    ",
"ooooXXXX....XXXXoooooooooooo            ooooooooooooXXXX....    ",
"ooooXXXX....XXXXoooooooooooo            ooooooooooooXXXX....    ",
"ooooXXXX....XXXXoooooooooooo            ooooooooooooXXXX....    ",
"ooooXXXX....XXXXoooooooooooo            ooooooooooooXXXX....    ",
"ooooXXXX....XXXXooooXXXXXXXX            XXXXXXXXooooXXXX....    ",
"ooooXXXX....XXXXooooXXXXXXXX            XXXXXXXXooooXXXX....    ",
"ooooXXXX....XXXXooooXXXXXXXX            XXXXXXXXooooXXXX....    ",
"ooooXXXX....XXXXooooXXXXXXXX            XXXXXXXXooooXXXX....    ",
"    XXXXXXXX....ooooXXXXXXXX            XXXXXXXXoooo....XXXX    ",
"    XXXXXXXX....ooooXXXXXXXX            XXXXXXXXoooo....XXXX    ",
"    XXXXXXXX....ooooXXXXXXXX            XXXXXXXXoooo....XXXX    ",
"    XXXXXXXX....ooooXXXXXXXX            XXXXXXXXoooo....XXXX    ",
"    ooooXXXXXXXX........XXXX            XXXX........XXXX        ",
"    ooooXXXXXXXX........XXXX            XXXX........XXXX        ",
"    ooooXXXXXXXX........XXXX            XXXX........XXXX        ",
"    ooooXXXXXXXX........XXXX            XXXX........XXXX        ",
"        ooooXXXXXXXXXXXX....................XXXXXXXX            ",
"        ooooXXXXXXXXXXXX....................XXXXXXXX            ",
"        ooooXXXXXXXXXXXX....................XXXXXXXX            ",
"        ooooXXXXXXXXXXXX....................XXXXXXXX            ",
"            ooooooooooooXXXXXXXXXXXXXXXXXXXX                    ",
"            ooooooooooooXXXXXXXXXXXXXXXXXXXX                    ",
"            ooooooooooooXXXXXXXXXXXXXXXXXXXX                    ",
"            ooooooooooooXXXXXXXXXXXXXXXXXXXX                    "
};
