/* XPM */
static char *result[] = {
/* columns rows colors chars-per-pixel */
"64 64 4 1 ",
"  c gray8",
". c gray60",
"X c gray91",
"o c None",
/* pixels */
"oooooooooooooooooooooooooooooooooooooooooooooooooooooooooooooooo",
"oooooooooooooooooooooooooooooooooooooooooooooooooooooooooooooooo",
"oooooooooooooooooooooooooooooooooooooooooooooooooooooooooooooooo",
"oooooooooooooooooooooooooooooooooooooooooooooooooooooooooooooooo",
"oooooooooooooooooooooooooooooooooooooooooooooooooooooooooooooooo",
"oooooooooooooooooooooooooooooooooooooooooooooooooooooooooooooooo",
"oooooooooooooooooooooooooooooooooooooooooooooooooooooooooooooooo",
"oooooooooooooooooooooooooooooooooooooooooooooooooooooooooooooooo",
"oooooooooooooooo....        ....oooooooooooooooooooooooooooooooo",
"oooooooooooooooo....        ....oooooooooooooooooooooooooooooooo",
"oooooooooooooooo....        ....oooooooooooooooooooooooooooooooo",
"oooooooooooooooo....        ....oooooooooooooooooooooooooooooooo",
"oooooooooooo    XXXXXXXXXXXXXXXX    oooooooooooooooooooooooooooo",
"oooooooooooo    XXXXXXXXXXXXXXXX    oooooooooooooooooooooooooooo",
"oooooooooooo    XXXXXXXXXXXXXXXX    oooooooooooooooooooooooooooo",
"oooooooooooo    XXXXXXXXXXXXXXXX    oooooooooooooooooooooooooooo",
"oooooooo    XXXXXXXXXXXXXXXXXXXXXXXX    oooooooooooooooooooooooo",
"oooooooo    XXXXXXXXXXXXXXXXXXXXXXXX    oooooooooooooooooooooooo",
"oooooooo    XXXXXXXXXXXXXXXXXXXXXXXX    oooooooooooooooooooooooo",
"oooooooo    XXXXXXXXXXXXXXXXXXXXXXXX    oooooooooooooooooooooooo",
"oooo    XXXX    XXXXXXXXXXXXXXXXXXXXXXXX    oooooooooooo    ....",
"oooo    XXXX    XXXXXXXXXXXXXXXXXXXXXXXX    oooooooooooo    ....",
"oooo    XXXX    XXXXXXXXXXXXXXXXXXXXXXXX    oooooooooooo    ....",
"oooo    XXXX    XXXXXXXXXXXXXXXXXXXXXXXX    oooooooooooo    ....",
"oooo    XXXX    XXXXXXXXXXXXXXXXXXXXXXXXXXXX    oooo    XXXX    ",
"oooo    XXXX    XXXXXXXXXXXXXXXXXXXXXXXXXXXX    oooo    XXXX    ",
"oooo    XXXX    XXXXXXXXXXXXXXXXXXXXXXXXXXXX    oooo    XXXX    ",
"oooo    XXXX    XXXXXXXXXXXXXXXXXXXXXXXXXXXX    oooo    XXXX    ",
"    XXXXXXXXXXXXXXXXXXXXXXXXXXXXXXXXXXXXXXXXXXXX    ....XXXX    ",
"    XXXXXXXXXXXXXXXXXXXXXXXXXXXXXXXXXXXXXXXXXXXX    ....XXXX    ",
"    XXXXXXXXXXXXXXXXXXXXXXXXXXXXXXXXXXXXXXXXXXXX    ....XXXX    ",
"    XXXXXXXXXXXXXXXXXXXXXXXXXXXXXXXXXXXXXXXXXXXX    ....XXXX    ",
"....XXXX....XXXX....XXXXXXXX....XXXXXXXXXXXXXXXXXXXXXXXXXXXX    ",
"....XXXX....XXXX....XXXXXXXX....XXXXXXXXXXXXXXXXXXXXXXXXXXXX    ",
"....XXXX....XXXX....XXXXXXXX....XXXXXXXXXXXXXXXXXXXXXXXXXXXX    ",
"....XXXX....XXXX....XXXXXXXX....XXXXXXXXXXXXXXXXXXXXXXXXXXXX    ",
"oooo....XXXXXXXX....XXXXXXXX....XXXXXXXXXXXXXXXX        XXXX    ",
"oooo....XXXXXXXX....XXXXXXXX....XXXXXXXXXXXXXXXX        XXXX    ",
"oooo....XXXXXXXX....XXXXXXXX....XXXXXXXXXXXXXXXX        XXXX    ",
"oooo....XXXXXXXX....XXXXXXXX....XXXXXXXXXXXXXXXX        XXXX    ",
"XXXXoooo....    ....XXXXXXXX........        ....oooooooo    ....",
"XXXXoooo....    ....XXXXXXXX........        ....oooooooo    ....",
"XXXXoooo....    ....XXXXXXXX........        ....oooooooo    ....",
"XXXXoooo....    ....XXXXXXXX........        ....oooooooo    ....",
"ooooXXXXoooooooooooo........ooooooooXXXXXXXXXXXXXXXXXXXXXXXXoooo",
"ooooXXXXoooooooooooo........ooooooooXXXXXXXXXXXXXXXXXXXXXXXXoooo",
"ooooXXXXoooooooooooo........ooooooooXXXXXXXXXXXXXXXXXXXXXXXXoooo",
"ooooXXXXoooooooooooo........ooooooooXXXXXXXXXXXXXXXXXXXXXXXXoooo",
"ooooooooooooXXXXXXXXXXXXXXXXXXXXXXXXoooooooooooooooooooooooooooo",
"ooooooooooooXXXXXXXXXXXXXXXXXXXXXXXXoooooooooooooooooooooooooooo",
"ooooooooooooXXXXXXXXXXXXXXXXXXXXXXXXoooooooooooooooooooooooooooo",
"ooooooooooooXXXXXXXXXXXXXXXXXXXXXXXXoooooooooooooooooooooooooooo",
"oooooooooooooooooooooooooooooooooooooooooooooooooooooooooooooooo",
"oooooooooooooooooooooooooooooooooooooooooooooooooooooooooooooooo",
"oooooooooooooooooooooooooooooooooooooooooooooooooooooooooooooooo",
"oooooooooooooooooooooooooooooooooooooooooooooooooooooooooooooooo",
"oooooooooooooooooooooooooooooooooooooooooooooooooooooooooooooooo",
"oooooooooooooooooooooooooooooooooooooooooooooooooooooooooooooooo",
"oooooooooooooooooooooooooooooooooooooooooooooooooooooooooooooooo",
"oooooooooooooooooooooooooooooooooooooooooooooooooooooooooooooooo",
"oooooooooooooooooooooooooooooooooooooooooooooooooooooooooooooooo",
"oooooooooooooooooooooooooooooooooooooooooooooooooooooooooooooooo",
"oooooooooooooooooooooooooooooooooooooooooooooooooooooooooooooooo",
"oooooooooooooooooooooooooooooooooooooooooooooooooooooooooooooooo"
};
