/* XPM */
static char *result[] = {
/* columns rows colors chars-per-pixel */
"64 64 4 1 ",
"  c gray8",
". c gray60",
"X c gray91",
"o c None",
/* pixels */
"oooooooooooooooooooooooooooooooooooooooooooooooooooooooooooooooo",
"oooooooooooooooooooooooooooooooooooooooooooooooooooooooooooooooo",
"oooooooooooooooooooooooooooooooooooooooooooooooooooooooooooooooo",
"oooooooooooooooooooooooooooooooooooooooooooooooooooooooooooooooo",
"oooooooooooooooooooooooooooooooooooooooooooooooooooooooooooooooo",
"oooooooooooooooooooooooooooooooooooooooooooooooooooooooooooooooo",
"oooooooooooooooooooooooooooooooooooooooooooooooooooooooooooooooo",
"oooooooooooooooooooooooooooooooooooooooooooooooooooooooooooooooo",
"ooooooooooooooooXXXXooooooooooooooooooooooooXXXXoooooooooooooooo",
"ooooooooooooooooXXXXooooooooooooooooooooooooXXXXoooooooooooooooo",
"ooooooooooooooooXXXXooooooooooooooooooooooooXXXXoooooooooooooooo",
"ooooooooooooooooXXXXooooooooooooooooooooooooXXXXoooooooooooooooo",
"ooooooooooooXXXXooooooooooooooooooooooooooooooooXXXXoooooooooooo",
"ooooooooooooXXXXooooooooooooooooooooooooooooooooXXXXoooooooooooo",
"ooooooooooooXXXXooooooooooooooooooooooooooooooooXXXXoooooooooooo",
"ooooooooooooXXXXooooooooooooooooooooooooooooooooXXXXoooooooooooo",
"ooooooooooooXXXXoooooooo....        ....ooooooooXXXXoooooooooooo",
"ooooooooooooXXXXoooooooo....        ....ooooooooXXXXoooooooooooo",
"ooooooooooooXXXXoooooooo....        ....ooooooooXXXXoooooooooooo",
"ooooooooooooXXXXoooooooo....        ....ooooooooXXXXoooooooooooo",
"ooooXXXXoooooooooooo    XXXXXXXXXXXXXXXX    ooooooooooooXXXXoooo",
"ooooXXXXoooooooooooo    XXXXXXXXXXXXXXXX    ooooooooooooXXXXoooo",
"ooooXXXXoooooooooooo    XXXXXXXXXXXXXXXX    ooooooooooooXXXXoooo",
"ooooXXXXoooooooooooo    XXXXXXXXXXXXXXXX    ooooooooooooXXXXoooo",
"oooooooooooooooo    XXXXXXXXXXXXXXXXXXXXXXXX    oooooooooooooooo",
"oooooooooooooooo    XXXXXXXXXXXXXXXXXXXXXXXX    oooooooooooooooo",
"oooooooooooooooo    XXXXXXXXXXXXXXXXXXXXXXXX    oooooooooooooooo",
"oooooooooooooooo    XXXXXXXXXXXXXXXXXXXXXXXX    oooooooooooooooo",
"ooooXXXXoooo    XXXXXXXX    XXXXXXXX    XXXXXXXX    ooooXXXXoooo",
"ooooXXXXoooo    XXXXXXXX    XXXXXXXX    XXXXXXXX    ooooXXXXoooo",
"ooooXXXXoooo    XXXXXXXX    XXXXXXXX    XXXXXXXX    ooooXXXXoooo",
"ooooXXXXoooo    XXXXXXXX    XXXXXXXX    XXXXXXXX    ooooXXXXoooo",
"oooooooooooo....XXXXXXXX    XXXXXXXX    XXXXXXXX....oooooooooooo",
"oooooooooooo....XXXXXXXX    XXXXXXXX    XXXXXXXX....oooooooooooo",
"oooooooooooo....XXXXXXXX    XXXXXXXX    XXXXXXXX....oooooooooooo",
"oooooooooooo....XXXXXXXX    XXXXXXXX    XXXXXXXX....oooooooooooo",
"oooooooo....XXXXXXXXXXXXXXXXXXXXXXXXXXXXXXXXXXXXXXXX....oooooooo",
"oooooooo....XXXXXXXXXXXXXXXXXXXXXXXXXXXXXXXXXXXXXXXX....oooooooo",
"oooooooo....XXXXXXXXXXXXXXXXXXXXXXXXXXXXXXXXXXXXXXXX....oooooooo",
"oooooooo....XXXXXXXXXXXXXXXXXXXXXXXXXXXXXXXXXXXXXXXX....oooooooo",
"oooooooo    XXXX........XXXX        XXXX........XXXX    oooooooo",
"oooooooo    XXXX........XXXX        XXXX........XXXX    oooooooo",
"oooooooo    XXXX........XXXX        XXXX........XXXX    oooooooo",
"oooooooo    XXXX........XXXX        XXXX........XXXX    oooooooo",
"ooooooooXXXX....XXXXXXXXXXXXXXXXXXXXXXXXXXXXXXXX....XXXXoooooooo",
"ooooooooXXXX....XXXXXXXXXXXXXXXXXXXXXXXXXXXXXXXX....XXXXoooooooo",
"ooooooooXXXX....XXXXXXXXXXXXXXXXXXXXXXXXXXXXXXXX....XXXXoooooooo",
"ooooooooXXXX....XXXXXXXXXXXXXXXXXXXXXXXXXXXXXXXX....XXXXoooooooo",
"ooooooooooooXXXX........XXXXXXXXXXXXXXXX........XXXXoooooooooooo",
"ooooooooooooXXXX........XXXXXXXXXXXXXXXX........XXXXoooooooooooo",
"ooooooooooooXXXX........XXXXXXXXXXXXXXXX........XXXXoooooooooooo",
"ooooooooooooXXXX........XXXXXXXXXXXXXXXX........XXXXoooooooooooo",
"ooooooooooooooooooooXXXX................XXXXoooooooooooooooooooo",
"ooooooooooooooooooooXXXX................XXXXoooooooooooooooooooo",
"ooooooooooooooooooooXXXX................XXXXoooooooooooooooooooo",
"ooooooooooooooooooooXXXX................XXXXoooooooooooooooooooo",
"oooooooooooooooooooooooooooooooooooooooooooooooooooooooooooooooo",
"oooooooooooooooooooooooooooooooooooooooooooooooooooooooooooooooo",
"oooooooooooooooooooooooooooooooooooooooooooooooooooooooooooooooo",
"oooooooooooooooooooooooooooooooooooooooooooooooooooooooooooooooo",
"oooooooooooooooooooooooooooooooooooooooooooooooooooooooooooooooo",
"oooooooooooooooooooooooooooooooooooooooooooooooooooooooooooooooo",
"oooooooooooooooooooooooooooooooooooooooooooooooooooooooooooooooo",
"oooooooooooooooooooooooooooooooooooooooooooooooooooooooooooooooo"
};
