/* XPM */
static char *result[] = {
/* columns rows colors chars-per-pixel */
"64 64 4 1 ",
"  c #FFEFFF",
". c #181010",
"X c #ADE75A",
"o c #A5D6FF",
/* pixels */
"    ....XXXXoooooooo....oooo........oooooooooooo        oooooooo",
"    ....XXXXoooooooo....oooo........oooooooooooo        oooooooo",
"    ....XXXXoooooooo....oooo........oooooooooooo        oooooooo",
"    ....XXXXoooooooo....oooo........oooooooooooo        oooooooo",
"....oooo....XXXXoooooooo........XXXXoooooooo        oooooooooooo",
"....oooo....XXXXoooooooo........XXXXoooooooo        oooooooooooo",
"....oooo....XXXXoooooooo........XXXXoooooooo        oooooooooooo",
"....oooo....XXXXoooooooo........XXXXoooooooo        oooooooooooo",
"....oooooooo....XXXX........XXXX....oooooooo        oooooooooooo",
"....oooooooo....XXXX........XXXX....oooooooo        oooooooooooo",
"....oooooooo....XXXX........XXXX....oooooooo        oooooooooooo",
"....oooooooo....XXXX........XXXX....oooooooo        oooooooooooo",
"....oooooooooooo........XXXX....oooooooooooooooo        oooooooo",
"....oooooooooooo........XXXX....oooooooooooooooo        oooooooo",
"....oooooooooooo........XXXX....oooooooooooooooo        oooooooo",
"....oooooooooooo........XXXX....oooooooooooooooo        oooooooo",
"....oooooooooooo........XXXXoooo....oooooooooooooooo            ",
"....oooooooooooo........XXXXoooo....oooooooooooooooo            ",
"....oooooooooooo........XXXXoooo....oooooooooooooooo            ",
"....oooooooooooo........XXXXoooo....oooooooooooooooo            ",
"....oooooooo....XXXXXXXX........oooo    oooooooooooooooooooooooo",
"....oooooooo....XXXXXXXX........oooo    oooooooooooooooooooooooo",
"....oooooooo....XXXXXXXX........oooo    oooooooooooooooooooooooo",
"....oooooooo....XXXXXXXX........oooo    oooooooooooooooooooooooo",
"....oooo....XXXXoooo....oooo....oooooooo        oooooooooooooooo",
"....oooo....XXXXoooo....oooo....oooooooo        oooooooooooooooo",
"....oooo....XXXXoooo....oooo....oooooooo        oooooooooooooooo",
"....oooo....XXXXoooo....oooo....oooooooo        oooooooooooooooo",
"........XXXXoooooooooooo....oooo....oooooooo        oooooooooooo",
"........XXXXoooooooooooo....oooo....oooooooo        oooooooooooo",
"........XXXXoooooooooooo....oooo....oooooooo        oooooooooooo",
"........XXXXoooooooooooo....oooo....oooooooo        oooooooooooo",
"........XXXXoooooooo....oooo........oooooooooooo        oooooooo",
"........XXXXoooooooo....oooo........oooooooooooo        oooooooo",
"........XXXXoooooooo....oooo........oooooooooooo        oooooooo",
"........XXXXoooooooo....oooo........oooooooooooo        oooooooo",
"....oooo....XXXXoooooooo........XXXXoooooooo        oooooooooooo",
"....oooo....XXXXoooooooo........XXXXoooooooo        oooooooooooo",
"....oooo....XXXXoooooooo........XXXXoooooooo        oooooooooooo",
"....oooo....XXXXoooooooo........XXXXoooooooo        oooooooooooo",
"....oooooooo....XXXX........XXXX....oooooooo        oooooooooooo",
"....oooooooo....XXXX........XXXX....oooooooo        oooooooooooo",
"....oooooooo....XXXX........XXXX....oooooooo        oooooooooooo",
"....oooooooo....XXXX........XXXX....oooooooo        oooooooooooo",
"....oooooooooooo........XXXX....oooooooooooooooo        oooooooo",
"....oooooooooooo........XXXX....oooooooooooooooo        oooooooo",
"....oooooooooooo........XXXX....oooooooooooooooo        oooooooo",
"....oooooooooooo........XXXX....oooooooooooooooo        oooooooo",
"....oooooooooooo........XXXXoooo....oooooooooooooooo            ",
"....oooooooooooo........XXXXoooo....oooooooooooooooo            ",
"....oooooooooooo........XXXXoooo....oooooooooooooooo            ",
"....oooooooooooo........XXXXoooo....oooooooooooooooo            ",
"....oooooooo....XXXXXXXX........oooo    oooooooooooooooooooooooo",
"....oooooooo....XXXXXXXX........oooo    oooooooooooooooooooooooo",
"....oooooooo....XXXXXXXX........oooo    oooooooooooooooooooooooo",
"....oooooooo....XXXXXXXX........oooo    oooooooooooooooooooooooo",
"....oooo....XXXXoooo....oooo....oooooooo        oooooooooooooooo",
"....oooo....XXXXoooo....oooo....oooooooo        oooooooooooooooo",
"....oooo....XXXXoooo....oooo....oooooooo        oooooooooooooooo",
"....oooo....XXXXoooo....oooo....oooooooo        oooooooooooooooo",
"oooo....XXXXoooooooooooo....oooo....oooooooo        oooooooooooo",
"oooo....XXXXoooooooooooo....oooo....oooooooo        oooooooooooo",
"oooo....XXXXoooooooooooo....oooo....oooooooo        oooooooooooo",
"oooo....XXXXoooooooooooo....oooo....oooooooo        oooooooooooo"
};
