/* XPM */
static char *result[] = {
/* columns rows colors chars-per-pixel */
"64 64 4 1 ",
"  c gray8",
". c gray60",
"X c gray91",
"o c None",
/* pixels */
"oooooooooooooooooooooooooooooooooooooooooooooooooooooooooooooooo",
"oooooooooooooooooooooooooooooooooooooooooooooooooooooooooooooooo",
"oooooooooooooooooooooooooooooooooooooooooooooooooooooooooooooooo",
"oooooooooooooooooooooooooooooooooooooooooooooooooooooooooooooooo",
"oooooooooooooooooooooooooooooooooooooooooooooooooooooooooooooooo",
"oooooooooooooooooooooooooooooooooooooooooooooooooooooooooooooooo",
"oooooooooooooooooooooooooooooooooooooooooooooooooooooooooooooooo",
"oooooooooooooooooooooooooooooooooooooooooooooooooooooooooooooooo",
"ooooooooooooXXXXooooooooooooooooooooooooooooooooXXXXoooooooooooo",
"ooooooooooooXXXXooooooooooooooooooooooooooooooooXXXXoooooooooooo",
"ooooooooooooXXXXooooooooooooooooooooooooooooooooXXXXoooooooooooo",
"ooooooooooooXXXXooooooooooooooooooooooooooooooooXXXXoooooooooooo",
"ooooooooXXXXooooooooXXXX....        ....XXXXooooooooXXXXoooooooo",
"ooooooooXXXXooooooooXXXX....        ....XXXXooooooooXXXXoooooooo",
"ooooooooXXXXooooooooXXXX....        ....XXXXooooooooXXXXoooooooo",
"ooooooooXXXXooooooooXXXX....        ....XXXXooooooooXXXXoooooooo",
"ooooooooXXXXooooXXXX    XXXXXXXXXXXXXXXX    XXXXooooXXXXoooooooo",
"ooooooooXXXXooooXXXX    XXXXXXXXXXXXXXXX    XXXXooooXXXXoooooooo",
"ooooooooXXXXooooXXXX    XXXXXXXXXXXXXXXX    XXXXooooXXXXoooooooo",
"ooooooooXXXXooooXXXX    XXXXXXXXXXXXXXXX    XXXXooooXXXXoooooooo",
"ooooXXXXoooo....    XXXXXXXXXXXXXXXXXXXXXXXX    ....ooooXXXXoooo",
"ooooXXXXoooo....    XXXXXXXXXXXXXXXXXXXXXXXX    ....ooooXXXXoooo",
"ooooXXXXoooo....    XXXXXXXXXXXXXXXXXXXXXXXX    ....ooooXXXXoooo",
"ooooXXXXoooo....    XXXXXXXXXXXXXXXXXXXXXXXX    ....ooooXXXXoooo",
"ooooXXXXoooo    XXXXXXXX    XXXXXXXX    XXXXXXXX    ooooXXXXoooo",
"ooooXXXXoooo    XXXXXXXX    XXXXXXXX    XXXXXXXX    ooooXXXXoooo",
"ooooXXXXoooo    XXXXXXXX    XXXXXXXX    XXXXXXXX    ooooXXXXoooo",
"ooooXXXXoooo    XXXXXXXX    XXXXXXXX    XXXXXXXX    ooooXXXXoooo",
"ooooXXXXoooo....XXXXXXXX    XXXXXXXX    XXXXXXXX....ooooXXXXoooo",
"ooooXXXXoooo....XXXXXXXX    XXXXXXXX    XXXXXXXX....ooooXXXXoooo",
"ooooXXXXoooo....XXXXXXXX    XXXXXXXX    XXXXXXXX....ooooXXXXoooo",
"ooooXXXXoooo....XXXXXXXX    XXXXXXXX    XXXXXXXX....ooooXXXXoooo",
"oooo    ....XXXXXXXXXXXXXXXXXXXXXXXXXXXXXXXXXXXXXXXX....    oooo",
"oooo    ....XXXXXXXXXXXXXXXXXXXXXXXXXXXXXXXXXXXXXXXX....    oooo",
"oooo    ....XXXXXXXXXXXXXXXXXXXXXXXXXXXXXXXXXXXXXXXX....    oooo",
"oooo    ....XXXXXXXXXXXXXXXXXXXXXXXXXXXXXXXXXXXXXXXX....    oooo",
"    XXXXXXXXXXXX........XXXX        XXXX........XXXXXXXXXXXX    ",
"    XXXXXXXXXXXX........XXXX        XXXX........XXXXXXXXXXXX    ",
"    XXXXXXXXXXXX........XXXX        XXXX........XXXXXXXXXXXX    ",
"    XXXXXXXXXXXX........XXXX        XXXX........XXXXXXXXXXXX    ",
"....        ....XXXXXXXXXXXXXXXXXXXXXXXXXXXXXXXX....        ....",
"....        ....XXXXXXXXXXXXXXXXXXXXXXXXXXXXXXXX....        ....",
"....        ....XXXXXXXXXXXXXXXXXXXXXXXXXXXXXXXX....        ....",
"....        ....XXXXXXXXXXXXXXXXXXXXXXXXXXXXXXXX....        ....",
"ooooooooXXXXXXXX........XXXXXXXXXXXXXXXX........XXXXXXXXoooooooo",
"ooooooooXXXXXXXX........XXXXXXXXXXXXXXXX........XXXXXXXXoooooooo",
"ooooooooXXXXXXXX........XXXXXXXXXXXXXXXX........XXXXXXXXoooooooo",
"ooooooooXXXXXXXX........XXXXXXXXXXXXXXXX........XXXXXXXXoooooooo",
"ooooooooooooXXXXXXXXXXXX................XXXXXXXXXXXXoooooooooooo",
"ooooooooooooXXXXXXXXXXXX................XXXXXXXXXXXXoooooooooooo",
"ooooooooooooXXXXXXXXXXXX................XXXXXXXXXXXXoooooooooooo",
"ooooooooooooXXXXXXXXXXXX................XXXXXXXXXXXXoooooooooooo",
"ooooooooooooooooooooXXXXXXXXXXXXXXXXXXXXXXXXoooooooooooooooooooo",
"ooooooooooooooooooooXXXXXXXXXXXXXXXXXXXXXXXXoooooooooooooooooooo",
"ooooooooooooooooooooXXXXXXXXXXXXXXXXXXXXXXXXoooooooooooooooooooo",
"ooooooooooooooooooooXXXXXXXXXXXXXXXXXXXXXXXXoooooooooooooooooooo",
"oooooooooooooooooooooooooooooooooooooooooooooooooooooooooooooooo",
"oooooooooooooooooooooooooooooooooooooooooooooooooooooooooooooooo",
"oooooooooooooooooooooooooooooooooooooooooooooooooooooooooooooooo",
"oooooooooooooooooooooooooooooooooooooooooooooooooooooooooooooooo",
"oooooooooooooooooooooooooooooooooooooooooooooooooooooooooooooooo",
"oooooooooooooooooooooooooooooooooooooooooooooooooooooooooooooooo",
"oooooooooooooooooooooooooooooooooooooooooooooooooooooooooooooooo",
"oooooooooooooooooooooooooooooooooooooooooooooooooooooooooooooooo"
};
