/* XPM */
static char *result[] = {
/* columns rows colors chars-per-pixel */
"64 64 4 1 ",
"  c #FFEFFF",
". c #ADE75A",
"X c #181010",
"o c #A5D6FF",
/* pixels */
"                                                                ",
"                                                                ",
"                                                                ",
"                                                                ",
"    ....    ....                    ....    ....                ",
"    ....    ....                    ....    ....                ",
"    ....    ....                    ....    ....                ",
"    ....    ....                    ....    ....                ",
"    ....    ....    ....    ....    ....    ....    ....    ....",
"    ....    ....    ....    ....    ....    ....    ....    ....",
"    ....    ....    ....    ....    ....    ....    ....    ....",
"    ....    ....    ....    ....    ....    ....    ....    ....",
"                    ....    ....                    ....    ....",
"                    ....    ....                    ....    ....",
"                    ....    ....                    ....    ....",
"                    ....    ....                    ....    ....",
"                                                                ",
"                                                                ",
"                                                                ",
"                                                                ",
"        ....    ....                    ....    ....            ",
"        ....    ....                    ....    ....            ",
"        ....    ....                    ....    ....            ",
"        ....    ....                    ....    ....            ",
"        ....    ....                    ....    ....            ",
"        ....    ....                    ....    ....            ",
"        ....    ....                    ....    ....            ",
"        ....    ....                    ....    ....            ",
"                                                                ",
"                                                                ",
"                                                                ",
"                                                                ",
"XXXXooooooooooooooooooooooooXXXXXXXXooooooooooooooooooooooooXXXX",
"XXXXooooooooooooooooooooooooXXXXXXXXooooooooooooooooooooooooXXXX",
"XXXXooooooooooooooooooooooooXXXXXXXXooooooooooooooooooooooooXXXX",
"XXXXooooooooooooooooooooooooXXXXXXXXooooooooooooooooooooooooXXXX",
"....XXXXooooooooooooooooXXXX........XXXXooooooooooooooooXXXX....",
"....XXXXooooooooooooooooXXXX........XXXXooooooooooooooooXXXX....",
"....XXXXooooooooooooooooXXXX........XXXXooooooooooooooooXXXX....",
"....XXXXooooooooooooooooXXXX........XXXXooooooooooooooooXXXX....",
"oooo....XXXXooooooooXXXX....oooooooo....XXXXooooooooXXXX....oooo",
"oooo....XXXXooooooooXXXX....oooooooo....XXXXooooooooXXXX....oooo",
"oooo....XXXXooooooooXXXX....oooooooo....XXXXooooooooXXXX....oooo",
"oooo....XXXXooooooooXXXX....oooooooo....XXXXooooooooXXXX....oooo",
"oooooooo....XXXXXXXX....oooooooooooooooo....XXXXXXXX....oooooooo",
"oooooooo....XXXXXXXX....oooooooooooooooo....XXXXXXXX....oooooooo",
"oooooooo....XXXXXXXX....oooooooooooooooo....XXXXXXXX....oooooooo",
"oooooooo....XXXXXXXX....oooooooooooooooo....XXXXXXXX....oooooooo",
"XXXXooooXXXXXXXXXXXX....XXXXooooXXXXooooXXXXXXXXXXXX....XXXXoooo",
"XXXXooooXXXXXXXXXXXX....XXXXooooXXXXooooXXXXXXXXXXXX....XXXXoooo",
"XXXXooooXXXXXXXXXXXX....XXXXooooXXXXooooXXXXXXXXXXXX....XXXXoooo",
"XXXXooooXXXXXXXXXXXX....XXXXooooXXXXooooXXXXXXXXXXXX....XXXXoooo",
"ooooXXXXXXXX........XXXXooooXXXXooooXXXXXXXX........XXXXooooXXXX",
"ooooXXXXXXXX........XXXXooooXXXXooooXXXXXXXX........XXXXooooXXXX",
"ooooXXXXXXXX........XXXXooooXXXXooooXXXXXXXX........XXXXooooXXXX",
"ooooXXXXXXXX........XXXXooooXXXXooooXXXXXXXX........XXXXooooXXXX",
"XXXXXXXX....XXXXooooXXXXXXXXooooXXXXXXXX....XXXXooooXXXXXXXXoooo",
"XXXXXXXX....XXXXooooXXXXXXXXooooXXXXXXXX....XXXXooooXXXXXXXXoooo",
"XXXXXXXX....XXXXooooXXXXXXXXooooXXXXXXXX....XXXXooooXXXXXXXXoooo",
"XXXXXXXX....XXXXooooXXXXXXXXooooXXXXXXXX....XXXXooooXXXXXXXXoooo",
"XXXX....XXXXooooXXXXooooooooXXXXXXXX....XXXXooooXXXXooooooooXXXX",
"XXXX....XXXXooooXXXXooooooooXXXXXXXX....XXXXooooXXXXooooooooXXXX",
"XXXX....XXXXooooXXXXooooooooXXXXXXXX....XXXXooooXXXXooooooooXXXX",
"XXXX....XXXXooooXXXXooooooooXXXXXXXX....XXXXooooXXXXooooooooXXXX"
};
