/* XPM */
static char *result[] = {
/* columns rows colors chars-per-pixel */
"64 64 4 1 ",
"  c gray8",
". c gray60",
"X c gray91",
"o c None",
/* pixels */
"oooooooooooooooooooooooooooooooooooooooooooooooooooooooooooooooo",
"oooooooooooooooooooooooooooooooooooooooooooooooooooooooooooooooo",
"oooooooooooooooooooooooooooooooooooooooooooooooooooooooooooooooo",
"oooooooooooooooooooooooooooooooooooooooooooooooooooooooooooooooo",
"oooooooooooooooooooooooo....        ....oooooooooooooooooooooooo",
"oooooooooooooooooooooooo....        ....oooooooooooooooooooooooo",
"oooooooooooooooooooooooo....        ....oooooooooooooooooooooooo",
"oooooooooooooooooooooooo....        ....oooooooooooooooooooooooo",
"oooooooooooooooooooo    XXXXXXXXXXXXXXXX    oooooooooooooooooooo",
"oooooooooooooooooooo    XXXXXXXXXXXXXXXX    oooooooooooooooooooo",
"oooooooooooooooooooo    XXXXXXXXXXXXXXXX    oooooooooooooooooooo",
"oooooooooooooooooooo    XXXXXXXXXXXXXXXX    oooooooooooooooooooo",
"ooooooooXXXXoooo    XXXXXXXXXXXXXXXXXXXXXXXX    ooooXXXXoooooooo",
"ooooooooXXXXoooo    XXXXXXXXXXXXXXXXXXXXXXXX    ooooXXXXoooooooo",
"ooooooooXXXXoooo    XXXXXXXXXXXXXXXXXXXXXXXX    ooooXXXXoooooooo",
"ooooooooXXXXoooo    XXXXXXXXXXXXXXXXXXXXXXXX    ooooXXXXoooooooo",
"ooooXXXXoooo    XXXXXXXXXXXXXXXXXXXXXXXXXXXXXXXX    ooooXXXXoooo",
"ooooXXXXoooo    XXXXXXXXXXXXXXXXXXXXXXXXXXXXXXXX    ooooXXXXoooo",
"ooooXXXXoooo    XXXXXXXXXXXXXXXXXXXXXXXXXXXXXXXX    ooooXXXXoooo",
"ooooXXXXoooo    XXXXXXXXXXXXXXXXXXXXXXXXXXXXXXXX    ooooXXXXoooo",
"oooooooooooo....XXXXXXXXXXXXXXXXXXXXXXXXXXXXXXXX....oooooooooooo",
"oooooooooooo....XXXXXXXXXXXXXXXXXXXXXXXXXXXXXXXX....oooooooooooo",
"oooooooooooo....XXXXXXXXXXXXXXXXXXXXXXXXXXXXXXXX....oooooooooooo",
"oooooooooooo....XXXXXXXXXXXXXXXXXXXXXXXXXXXXXXXX....oooooooooooo",
"oooooooo....XXXXXXXXXXXXXXXXXXXXXXXXXXXXXXXXXXXXXXXX....oooooooo",
"oooooooo....XXXXXXXXXXXXXXXXXXXXXXXXXXXXXXXXXXXXXXXX....oooooooo",
"oooooooo....XXXXXXXXXXXXXXXXXXXXXXXXXXXXXXXXXXXXXXXX....oooooooo",
"oooooooo....XXXXXXXXXXXXXXXXXXXXXXXXXXXXXXXXXXXXXXXX....oooooooo",
"oooooooo    XXXXXXXXXXXXXXXXXXXXXXXXXXXXXXXXXXXXXXXX    oooooooo",
"oooooooo    XXXXXXXXXXXXXXXXXXXXXXXXXXXXXXXXXXXXXXXX    oooooooo",
"oooooooo    XXXXXXXXXXXXXXXXXXXXXXXXXXXXXXXXXXXXXXXX    oooooooo",
"oooooooo    XXXXXXXXXXXXXXXXXXXXXXXXXXXXXXXXXXXXXXXX    oooooooo",
"oooooooo    XXXXXXXXXXXXXXXXXXXXXXXXXXXXXXXXXXXXXXXX    oooooooo",
"oooooooo    XXXXXXXXXXXXXXXXXXXXXXXXXXXXXXXXXXXXXXXX    oooooooo",
"oooooooo    XXXXXXXXXXXXXXXXXXXXXXXXXXXXXXXXXXXXXXXX    oooooooo",
"oooooooo    XXXXXXXXXXXXXXXXXXXXXXXXXXXXXXXXXXXXXXXX    oooooooo",
"XXXXoooo....XXXXXXXXXXXXXXXXXXXXXXXXXXXXXXXXXXXXXXXX....ooooXXXX",
"XXXXoooo....XXXXXXXXXXXXXXXXXXXXXXXXXXXXXXXXXXXXXXXX....ooooXXXX",
"XXXXoooo....XXXXXXXXXXXXXXXXXXXXXXXXXXXXXXXXXXXXXXXX....ooooXXXX",
"XXXXoooo....XXXXXXXXXXXXXXXXXXXXXXXXXXXXXXXXXXXXXXXX....ooooXXXX",
"XXXXooooooooooooXXXXXXXXXXXXXXXXXXXXXXXXXXXXXXXXooooooooooooXXXX",
"XXXXooooooooooooXXXXXXXXXXXXXXXXXXXXXXXXXXXXXXXXooooooooooooXXXX",
"XXXXooooooooooooXXXXXXXXXXXXXXXXXXXXXXXXXXXXXXXXooooooooooooXXXX",
"XXXXooooooooooooXXXXXXXXXXXXXXXXXXXXXXXXXXXXXXXXooooooooooooXXXX",
"XXXXooooXXXXoooooooo....                ....ooooooooXXXXooooXXXX",
"XXXXooooXXXXoooooooo....                ....ooooooooXXXXooooXXXX",
"XXXXooooXXXXoooooooo....                ....ooooooooXXXXooooXXXX",
"XXXXooooXXXXoooooooo....                ....ooooooooXXXXooooXXXX",
"ooooXXXXoooooooooooo    XXXXXXXXXXXXXXXX    ooooooooooooXXXXoooo",
"ooooXXXXoooooooooooo    XXXXXXXXXXXXXXXX    ooooooooooooXXXXoooo",
"ooooXXXXoooooooooooo    XXXXXXXXXXXXXXXX    ooooooooooooXXXXoooo",
"ooooXXXXoooooooooooo    XXXXXXXXXXXXXXXX    ooooooooooooXXXXoooo",
"ooooXXXXoooooooooooo....    XXXXXXXX    ....ooooooooooooXXXXoooo",
"ooooXXXXoooooooooooo....    XXXXXXXX    ....ooooooooooooXXXXoooo",
"ooooXXXXoooooooooooo....    XXXXXXXX    ....ooooooooooooXXXXoooo",
"ooooXXXXoooooooooooo....    XXXXXXXX    ....ooooooooooooXXXXoooo",
"ooooooooooooXXXXooooooooooooooooooooooooooooooooXXXXoooooooooooo",
"ooooooooooooXXXXooooooooooooooooooooooooooooooooXXXXoooooooooooo",
"ooooooooooooXXXXooooooooooooooooooooooooooooooooXXXXoooooooooooo",
"ooooooooooooXXXXooooooooooooooooooooooooooooooooXXXXoooooooooooo",
"oooooooooooooooooooooooooooooooooooooooooooooooooooooooooooooooo",
"oooooooooooooooooooooooooooooooooooooooooooooooooooooooooooooooo",
"oooooooooooooooooooooooooooooooooooooooooooooooooooooooooooooooo",
"oooooooooooooooooooooooooooooooooooooooooooooooooooooooooooooooo"
};
