/* XPM */
static char *result[] = {
/* columns rows colors chars-per-pixel */
"64 64 4 1 ",
"  c gray8",
". c gray60",
"X c gray91",
"o c None",
/* pixels */
"oooooooooooooooooooooooooooooooooooooooooooooooooooooooooooooooo",
"oooooooooooooooooooooooooooooooooooooooooooooooooooooooooooooooo",
"oooooooooooooooooooooooooooooooooooooooooooooooooooooooooooooooo",
"oooooooooooooooooooooooooooooooooooooooooooooooooooooooooooooooo",
"oooooooooooooooooooooooooooooooooooooooooooooooooooooooooooooooo",
"oooooooooooooooooooooooooooooooooooooooooooooooooooooooooooooooo",
"oooooooooooooooooooooooooooooooooooooooooooooooooooooooooooooooo",
"oooooooooooooooooooooooooooooooooooooooooooooooooooooooooooooooo",
"oooooooooooooooooooooooooooooooooooooooooooooooooooooooooooooooo",
"oooooooooooooooooooooooooooooooooooooooooooooooooooooooooooooooo",
"oooooooooooooooooooooooooooooooooooooooooooooooooooooooooooooooo",
"oooooooooooooooooooooooooooooooooooooooooooooooooooooooooooooooo",
"oooooooooooooooo....        ....oooooooooooooooooooooooooooooooo",
"oooooooooooooooo....        ....oooooooooooooooooooooooooooooooo",
"oooooooooooooooo....        ....oooooooooooooooooooooooooooooooo",
"oooooooooooooooo....        ....oooooooooooooooooooooooooooooooo",
"oooooooooooo    XXXXXXXXXXXXXXXX    oooooooooooooooooooooooooooo",
"oooooooooooo    XXXXXXXXXXXXXXXX    oooooooooooooooooooooooooooo",
"oooooooooooo    XXXXXXXXXXXXXXXX    oooooooooooooooooooooooooooo",
"oooooooooooo    XXXXXXXXXXXXXXXX    oooooooooooooooooooooooooooo",
"oooooooo    XXXXXXXXXXXXXXXXXXXXXXXX    oooooooooooooooooooooooo",
"oooooooo    XXXXXXXXXXXXXXXXXXXXXXXX    oooooooooooooooooooooooo",
"oooooooo    XXXXXXXXXXXXXXXXXXXXXXXX    oooooooooooooooooooooooo",
"oooooooo    XXXXXXXXXXXXXXXXXXXXXXXX    oooooooooooooooooooooooo",
"oooo    XXXX    XXXXXXXXXXXXXXXXXXXXXXXX    oooooooo    ....oooo",
"oooo    XXXX    XXXXXXXXXXXXXXXXXXXXXXXX    oooooooo    ....oooo",
"oooo    XXXX    XXXXXXXXXXXXXXXXXXXXXXXX    oooooooo    ....oooo",
"oooo    XXXX    XXXXXXXXXXXXXXXXXXXXXXXX    oooooooo    ....oooo",
"oooo    XXXX    XXXXXXXXXXXXXXXXXXXXXXXXXXXX        XXXX    oooo",
"oooo    XXXX    XXXXXXXXXXXXXXXXXXXXXXXXXXXX        XXXX    oooo",
"oooo    XXXX    XXXXXXXXXXXXXXXXXXXXXXXXXXXX        XXXX    oooo",
"oooo    XXXX    XXXXXXXXXXXXXXXXXXXXXXXXXXXX        XXXX    oooo",
"    XXXXXXXXXXXXXXXXXXXXXXXXXXXXXXXXXXXXXXXXXXXX....XXXX    oooo",
"    XXXXXXXXXXXXXXXXXXXXXXXXXXXXXXXXXXXXXXXXXXXX....XXXX    oooo",
"    XXXXXXXXXXXXXXXXXXXXXXXXXXXXXXXXXXXXXXXXXXXX....XXXX    oooo",
"    XXXXXXXXXXXXXXXXXXXXXXXXXXXXXXXXXXXXXXXXXXXX....XXXX    oooo",
"....XXXX    XXXXXXXXXXXXXXXXXXXXXXXXXXXXXXXXXXXXXXXXXXXX    oooo",
"....XXXX    XXXXXXXXXXXXXXXXXXXXXXXXXXXXXXXXXXXXXXXXXXXX    oooo",
"....XXXX    XXXXXXXXXXXXXXXXXXXXXXXXXXXXXXXXXXXXXXXXXXXX    oooo",
"....XXXX    XXXXXXXXXXXXXXXXXXXXXXXXXXXXXXXXXXXXXXXXXXXX    oooo",
"ooooXXXXooooooooXXXX....XXXXXXXXXXXX....ooooXXXXXXXXoooooooooooo",
"ooooXXXXooooooooXXXX....XXXXXXXXXXXX....ooooXXXXXXXXoooooooooooo",
"ooooXXXXooooooooXXXX....XXXXXXXXXXXX....ooooXXXXXXXXoooooooooooo",
"ooooXXXXooooooooXXXX....XXXXXXXXXXXX....ooooXXXXXXXXoooooooooooo",
"ooooooooXXXXXXXXoooooooo....XXXXXXXXXXXXooooooooooooXXXXXXXXoooo",
"ooooooooXXXXXXXXoooooooo....XXXXXXXXXXXXooooooooooooXXXXXXXXoooo",
"ooooooooXXXXXXXXoooooooo....XXXXXXXXXXXXooooooooooooXXXXXXXXoooo",
"ooooooooXXXXXXXXoooooooo....XXXXXXXXXXXXooooooooooooXXXXXXXXoooo",
"ooooooooooooXXXXXXXXXXXXXXXXXXXXXXXXXXXXXXXXXXXXXXXXooooooooXXXX",
"ooooooooooooXXXXXXXXXXXXXXXXXXXXXXXXXXXXXXXXXXXXXXXXooooooooXXXX",
"ooooooooooooXXXXXXXXXXXXXXXXXXXXXXXXXXXXXXXXXXXXXXXXooooooooXXXX",
"ooooooooooooXXXXXXXXXXXXXXXXXXXXXXXXXXXXXXXXXXXXXXXXooooooooXXXX",
"oooooooooooooooooooooooooooooooooooooooooooooooooooooooooooooooo",
"oooooooooooooooooooooooooooooooooooooooooooooooooooooooooooooooo",
"oooooooooooooooooooooooooooooooooooooooooooooooooooooooooooooooo",
"oooooooooooooooooooooooooooooooooooooooooooooooooooooooooooooooo",
"oooooooooooooooooooooooooooooooooooooooooooooooooooooooooooooooo",
"oooooooooooooooooooooooooooooooooooooooooooooooooooooooooooooooo",
"oooooooooooooooooooooooooooooooooooooooooooooooooooooooooooooooo",
"oooooooooooooooooooooooooooooooooooooooooooooooooooooooooooooooo",
"oooooooooooooooooooooooooooooooooooooooooooooooooooooooooooooooo",
"oooooooooooooooooooooooooooooooooooooooooooooooooooooooooooooooo",
"oooooooooooooooooooooooooooooooooooooooooooooooooooooooooooooooo",
"oooooooooooooooooooooooooooooooooooooooooooooooooooooooooooooooo"
};
