/* XPM */
static char *result[] = {
/* columns rows colors chars-per-pixel */
"64 64 3 1 ",
"  c gray8",
". c gray91",
"X c None",
/* pixels */
"XXXXXXXXXXXX........................................XXXXXXXXXXXX",
"XXXXXXXXXXXX........................................XXXXXXXXXXXX",
"XXXXXXXXXXXX........................................XXXXXXXXXXXX",
"XXXXXXXXXXXX........................................XXXXXXXXXXXX",
"XXXXXXXX....                                        ....XXXXXXXX",
"XXXXXXXX....                                        ....XXXXXXXX",
"XXXXXXXX....                                        ....XXXXXXXX",
"XXXXXXXX....                                        ....XXXXXXXX",
"XXXX....    ........................................    ....XXXX",
"XXXX....    ........................................    ....XXXX",
"XXXX....    ........................................    ....XXXX",
"XXXX....    ........................................    ....XXXX",
"....    ................................................    ....",
"....    ................................................    ....",
"....    ................................................    ....",
"....    ................................................    ....",
"....    ................................................    ....",
"....    ................................................    ....",
"....    ................................................    ....",
"....    ................................................    ....",
"....    ................................................    ....",
"....    ................................................    ....",
"....    ................................................    ....",
"....    ................................................    ....",
"....    ................................................    ....",
"....    ................................................    ....",
"....    ................................................    ....",
"....    ................................................    ....",
"....    ................................................    ....",
"....    ................................................    ....",
"....    ................................................    ....",
"....    ................................................    ....",
"....    ................................................    ....",
"....    ................................................    ....",
"....    ................................................    ....",
"....    ................................................    ....",
"....    ................................................    ....",
"....    ................................................    ....",
"....    ................................................    ....",
"....    ................................................    ....",
"....    ................................................    ....",
"....    ................................................    ....",
"....    ................................................    ....",
"....    ................................................    ....",
"XXXX....    ........................................    ....XXXX",
"XXXX....    ........................................    ....XXXX",
"XXXX....    ........................................    ....XXXX",
"XXXX....    ........................................    ....XXXX",
"XXXXXXXX....                                        ....XXXXXXXX",
"XXXXXXXX....                                        ....XXXXXXXX",
"XXXXXXXX....                                        ....XXXXXXXX",
"XXXXXXXX....                                        ....XXXXXXXX",
"XXXXXXXXXXXX....................        ............XXXXXXXXXXXX",
"XXXXXXXXXXXX....................        ............XXXXXXXXXXXX",
"XXXXXXXXXXXX....................        ............XXXXXXXXXXXX",
"XXXXXXXXXXXX....................        ............XXXXXXXXXXXX",
"XXXXXXXXXXXXXXXXXXXXXXXXXXXX....    ....XXXXXXXXXXXXXXXXXXXXXXXX",
"XXXXXXXXXXXXXXXXXXXXXXXXXXXX....    ....XXXXXXXXXXXXXXXXXXXXXXXX",
"XXXXXXXXXXXXXXXXXXXXXXXXXXXX....    ....XXXXXXXXXXXXXXXXXXXXXXXX",
"XXXXXXXXXXXXXXXXXXXXXXXXXXXX....    ....XXXXXXXXXXXXXXXXXXXXXXXX",
"XXXXXXXXXXXXXXXXXXXXXXXXXXXX........XXXXXXXXXXXXXXXXXXXXXXXXXXXX",
"XXXXXXXXXXXXXXXXXXXXXXXXXXXX........XXXXXXXXXXXXXXXXXXXXXXXXXXXX",
"XXXXXXXXXXXXXXXXXXXXXXXXXXXX........XXXXXXXXXXXXXXXXXXXXXXXXXXXX",
"XXXXXXXXXXXXXXXXXXXXXXXXXXXX........XXXXXXXXXXXXXXXXXXXXXXXXXXXX"
};
