/* XPM */
static char *result[] = {
/* columns rows colors chars-per-pixel */
"64 64 4 1 ",
"  c gray8",
". c gray60",
"X c gray91",
"o c none",
/* pixels */
"oooooooooooooooooooooooooooooooooooooooooooooooooooooooooooooooo",
"oooooooooooooooooooooooooooooooooooooooooooooooooooooooooooooooo",
"oooooooooooooooooooooooooooooooooooooooooooooooooooooooooooooooo",
"oooooooooooooooooooooooooooooooooooooooooooooooooooooooooooooooo",
"oooooooooooooooooooooooooooooooooooooooooooooooooooooooooooooooo",
"oooooooooooooooooooooooooooooooooooooooooooooooooooooooooooooooo",
"oooooooooooooooooooooooooooooooooooooooooooooooooooooooooooooooo",
"oooooooooooooooooooooooooooooooooooooooooooooooooooooooooooooooo",
"oooooooooooooooooooooooo                oooooooooooooooooooooooo",
"oooooooooooooooooooooooo                oooooooooooooooooooooooo",
"oooooooooooooooooooooooo                oooooooooooooooooooooooo",
"oooooooooooooooooooooooo                oooooooooooooooooooooooo",
"oooooooooooooooo        ................        oooooooooooooooo",
"oooooooooooooooo        ................        oooooooooooooooo",
"oooooooooooooooo        ................        oooooooooooooooo",
"oooooooooooooooo        ................        oooooooooooooooo",
"oooooooooooo    ............XXXXXXXX............    oooooooooooo",
"oooooooooooo    ............XXXXXXXX............    oooooooooooo",
"oooooooooooo    ............XXXXXXXX............    oooooooooooo",
"oooooooooooo    ............XXXXXXXX............    oooooooooooo",
"oooooooooooo    ............XXXXXXXX............    oooooooooooo",
"oooooooooooo    ............XXXXXXXX............    oooooooooooo",
"oooooooooooo    ............XXXXXXXX............    oooooooooooo",
"oooooooooooo    ............XXXXXXXX............    oooooooooooo",
"oooooooo    ........................................    oooooooo",
"oooooooo    ........................................    oooooooo",
"oooooooo    ........................................    oooooooo",
"oooooooo    ........................................    oooooooo",
"oooooooo    ........................................    oooooooo",
"oooooooo    ........................................    oooooooo",
"oooooooo    ........................................    oooooooo",
"oooooooo    ........................................    oooooooo",
"oooooooo    XXXXXXXX........................XXXXXXXX    oooooooo",
"oooooooo    XXXXXXXX........................XXXXXXXX    oooooooo",
"oooooooo    XXXXXXXX........................XXXXXXXX    oooooooo",
"oooooooo    XXXXXXXX........................XXXXXXXX    oooooooo",
"oooooooo    XXXXXXXXXXXXXXXXXXXXXXXXXXXXXXXXXXXXXXXX    oooooooo",
"oooooooo    XXXXXXXXXXXXXXXXXXXXXXXXXXXXXXXXXXXXXXXX    oooooooo",
"oooooooo    XXXXXXXXXXXXXXXXXXXXXXXXXXXXXXXXXXXXXXXX    oooooooo",
"oooooooo    XXXXXXXXXXXXXXXXXXXXXXXXXXXXXXXXXXXXXXXX    oooooooo",
"oooooooooooo    XXXXXXXXXXXXXXXXXXXXXXXXXXXXXXXX    oooooooooooo",
"oooooooooooo    XXXXXXXXXXXXXXXXXXXXXXXXXXXXXXXX    oooooooooooo",
"oooooooooooo    XXXXXXXXXXXXXXXXXXXXXXXXXXXXXXXX    oooooooooooo",
"oooooooooooo    XXXXXXXXXXXXXXXXXXXXXXXXXXXXXXXX    oooooooooooo",
"oooooooooooo    XXXXXXXXXXXXXXXXXXXXXXXXXXXXXXXX    oooooooooooo",
"oooooooooooo    XXXXXXXXXXXXXXXXXXXXXXXXXXXXXXXX    oooooooooooo",
"oooooooooooo    XXXXXXXXXXXXXXXXXXXXXXXXXXXXXXXX    oooooooooooo",
"oooooooooooo    XXXXXXXXXXXXXXXXXXXXXXXXXXXXXXXX    oooooooooooo",
"oooooooooooooooo        XXXXXXXXXXXXXXXX        oooooooooooooooo",
"oooooooooooooooo        XXXXXXXXXXXXXXXX        oooooooooooooooo",
"oooooooooooooooo        XXXXXXXXXXXXXXXX        oooooooooooooooo",
"oooooooooooooooo        XXXXXXXXXXXXXXXX        oooooooooooooooo",
"oooooooooooooooooooooooo                oooooooooooooooooooooooo",
"oooooooooooooooooooooooo                oooooooooooooooooooooooo",
"oooooooooooooooooooooooo                oooooooooooooooooooooooo",
"oooooooooooooooooooooooo                oooooooooooooooooooooooo",
"oooooooooooooooooooooooooooooooooooooooooooooooooooooooooooooooo",
"oooooooooooooooooooooooooooooooooooooooooooooooooooooooooooooooo",
"oooooooooooooooooooooooooooooooooooooooooooooooooooooooooooooooo",
"oooooooooooooooooooooooooooooooooooooooooooooooooooooooooooooooo",
"oooooooooooooooooooooooooooooooooooooooooooooooooooooooooooooooo",
"oooooooooooooooooooooooooooooooooooooooooooooooooooooooooooooooo",
"oooooooooooooooooooooooooooooooooooooooooooooooooooooooooooooooo",
"oooooooooooooooooooooooooooooooooooooooooooooooooooooooooooooooo"
};
