/* XPM */
static char *result[] = {
/* columns rows colors chars-per-pixel */
"64 64 5 1 ",
"  c #A8E058",
". c #F8E8F8",
"X c #181010",
"o c #90C0B0",
"O c #A87048",
/* pixels */
"    ....    ....    ....            ....    ....    ....        ",
"    ....    ....    ....            ....    ....    ....        ",
"    ....    ....    ....            ....    ....    ....        ",
"    ....    ....    ....            ....    ....    ....        ",
"....    ............    ....    ....    ............    ....    ",
"....    ............    ....    ....    ............    ....    ",
"....    ............    ....    ....    ............    ....    ",
"....    ............    ....    ....    ............    ....    ",
"    ........XXXXXXXXXXXX    ....    ....XXXXXXXXXXXX        ....",
"    ........XXXXXXXXXXXX    ....    ....XXXXXXXXXXXX        ....",
"    ........XXXXXXXXXXXX    ....    ....XXXXXXXXXXXX        ....",
"    ........XXXXXXXXXXXX    ....    ....XXXXXXXXXXXX        ....",
"....    ....XXXX....XXXXXXXXXXXXXXXXXXXXXXXX....XXXX    ....    ",
"....    ....XXXX....XXXXXXXXXXXXXXXXXXXXXXXX....XXXX    ....    ",
"....    ....XXXX....XXXXXXXXXXXXXXXXXXXXXXXX....XXXX    ....    ",
"....    ....XXXX....XXXXXXXXXXXXXXXXXXXXXXXX....XXXX    ....    ",
"    ....    XXXX....XXXXXXXXXXXXXXXXXXXXXXXX....XXXX....    ....",
"    ....    XXXX....XXXXXXXXXXXXXXXXXXXXXXXX....XXXX....    ....",
"    ....    XXXX....XXXXXXXXXXXXXXXXXXXXXXXX....XXXX....    ....",
"    ....    XXXX....XXXXXXXXXXXXXXXXXXXXXXXX....XXXX....    ....",
"....    XXXXXXXX....oooo................oooo....XXXXXXXX        ",
"....    XXXXXXXX....oooo................oooo....XXXXXXXX        ",
"....    XXXXXXXX....oooo................oooo....XXXXXXXX        ",
"....    XXXXXXXX....oooo................oooo....XXXXXXXX        ",
"........XXXXXXXX....XXXXXXXXXXXXXXXXXXXXXXXX....XXXXXXXX    ....",
"........XXXXXXXX....XXXXXXXXXXXXXXXXXXXXXXXX....XXXXXXXX    ....",
"........XXXXXXXX....XXXXXXXXXXXXXXXXXXXXXXXX....XXXXXXXX    ....",
"........XXXXXXXX....XXXXXXXXXXXXXXXXXXXXXXXX....XXXXXXXX    ....",
"....XXXXXXXXXXXX....XXXXXXXXXXXXXXXXXXXXXXXX....XXXXXXXXXXXX    ",
"....XXXXXXXXXXXX....XXXXXXXXXXXXXXXXXXXXXXXX....XXXXXXXXXXXX    ",
"....XXXXXXXXXXXX....XXXXXXXXXXXXXXXXXXXXXXXX....XXXXXXXXXXXX    ",
"....XXXXXXXXXXXX....XXXXXXXXXXXXXXXXXXXXXXXX....XXXXXXXXXXXX    ",
"    XXXXXXXXXXXX....oooo................oooo....XXXXXXXXXXXX    ",
"    XXXXXXXXXXXX....oooo................oooo....XXXXXXXXXXXX    ",
"    XXXXXXXXXXXX....oooo................oooo....XXXXXXXXXXXX    ",
"    XXXXXXXXXXXX....oooo................oooo....XXXXXXXXXXXX    ",
"....XXXXXXXXXXXXOOOOXXXXXXXXXXXXXXXXXXXXXXXXOOOOXXXXXXXXXXXX    ",
"....XXXXXXXXXXXXOOOOXXXXXXXXXXXXXXXXXXXXXXXXOOOOXXXXXXXXXXXX    ",
"....XXXXXXXXXXXXOOOOXXXXXXXXXXXXXXXXXXXXXXXXOOOOXXXXXXXXXXXX    ",
"....XXXXXXXXXXXXOOOOXXXXXXXXXXXXXXXXXXXXXXXXOOOOXXXXXXXXXXXX    ",
"    XXXXXXXXXXXXOOOOXXXXXXXXXXXXXXXXXXXXXXXXOOOOXXXXXXXXXXXX....",
"    XXXXXXXXXXXXOOOOXXXXXXXXXXXXXXXXXXXXXXXXOOOOXXXXXXXXXXXX....",
"    XXXXXXXXXXXXOOOOXXXXXXXXXXXXXXXXXXXXXXXXOOOOXXXXXXXXXXXX....",
"    XXXXXXXXXXXXOOOOXXXXXXXXXXXXXXXXXXXXXXXXOOOOXXXXXXXXXXXX....",
"....    XXXXXXXXooooooooooooooooooooooooooooooooXXXXXXXX....    ",
"....    XXXXXXXXooooooooooooooooooooooooooooooooXXXXXXXX....    ",
"....    XXXXXXXXooooooooooooooooooooooooooooooooXXXXXXXX....    ",
"....    XXXXXXXXooooooooooooooooooooooooooooooooXXXXXXXX....    ",
"    ....XXXXXXXXooooXXXXXXXXXXXXXXXXXXXXXXXXooooXXXXXXXX    ....",
"    ....XXXXXXXXooooXXXXXXXXXXXXXXXXXXXXXXXXooooXXXXXXXX    ....",
"    ....XXXXXXXXooooXXXXXXXXXXXXXXXXXXXXXXXXooooXXXXXXXX    ....",
"    ....XXXXXXXXooooXXXXXXXXXXXXXXXXXXXXXXXXooooXXXXXXXX    ....",
"....    ....XXXXXXXXXXXXXXXXXXXXXXXXXXXXXXXXXXXXXXXX....        ",
"....    ....XXXXXXXXXXXXXXXXXXXXXXXXXXXXXXXXXXXXXXXX....        ",
"....    ....XXXXXXXXXXXXXXXXXXXXXXXXXXXXXXXXXXXXXXXX....        ",
"....    ....XXXXXXXXXXXXXXXXXXXXXXXXXXXXXXXXXXXXXXXX....        ",
"........    ........XXXXXXXXXXXXXXXXXXXXXXXX........        ....",
"........    ........XXXXXXXXXXXXXXXXXXXXXXXX........        ....",
"........    ........XXXXXXXXXXXXXXXXXXXXXXXX........        ....",
"........    ........XXXXXXXXXXXXXXXXXXXXXXXX........        ....",
"....                    ....    ....                    ....    ",
"....                    ....    ....                    ....    ",
"....                    ....    ....                    ....    ",
"....                    ....    ....                    ....    "
};
