/* XPM */
static char *result[] = {
/* columns rows colors chars-per-pixel */
"64 64 5 1 ",
"  c #A8E058",
". c #F8E8F8",
"X c gray8",
"o c gray91",
"O c gray60",
/* pixels */
"    ....    ....    XXXXXXXXXXXXXXXXXXXXXXXX....    ....        ",
"    ....    ....    XXXXXXXXXXXXXXXXXXXXXXXX....    ....        ",
"    ....    ....    XXXXXXXXXXXXXXXXXXXXXXXX....    ....        ",
"    ....    ....    XXXXXXXXXXXXXXXXXXXXXXXX....    ....        ",
"....    ....XXXXXXXXooooooooooooooooooooooooXXXXXXXX    ....    ",
"....    ....XXXXXXXXooooooooooooooooooooooooXXXXXXXX    ....    ",
"....    ....XXXXXXXXooooooooooooooooooooooooXXXXXXXX    ....    ",
"....    ....XXXXXXXXooooooooooooooooooooooooXXXXXXXX    ....    ",
"    ....XXXXooooooooooooooooooooooooooooooooooooooooXXXX    ....",
"    ....XXXXooooooooooooooooooooooooooooooooooooooooXXXX    ....",
"    ....XXXXooooooooooooooooooooooooooooooooooooooooXXXX    ....",
"    ....XXXXooooooooooooooooooooooooooooooooooooooooXXXX    ....",
"....XXXXooooooooooooooooooooooooooooooooooooooooooooooooXXXX    ",
"....XXXXooooooooooooooooooooooooooooooooooooooooooooooooXXXX    ",
"....XXXXooooooooooooooooooooooooooooooooooooooooooooooooXXXX    ",
"....XXXXooooooooooooooooooooooooooooooooooooooooooooooooXXXX    ",
"    XXXXooooooooooooooooooooooooooooooooooooooooooooooooXXXX....",
"    XXXXooooooooooooooooooooooooooooooooooooooooooooooooXXXX....",
"    XXXXooooooooooooooooooooooooooooooooooooooooooooooooXXXX....",
"    XXXXooooooooooooooooooooooooooooooooooooooooooooooooXXXX....",
"XXXXooooooooooooooooooooooooooooooooooooooooOOOOooooooooooooXXXX",
"XXXXooooooooooooooooooooooooooooooooooooooooOOOOooooooooooooXXXX",
"XXXXooooooooooooooooooooooooooooooooooooooooOOOOooooooooooooXXXX",
"XXXXooooooooooooooooooooooooooooooooooooooooOOOOooooooooooooXXXX",
"XXXXooooooooooooooooooooooooooooooooooooooooooooooooooooooooXXXX",
"XXXXooooooooooooooooooooooooooooooooooooooooooooooooooooooooXXXX",
"XXXXooooooooooooooooooooooooooooooooooooooooooooooooooooooooXXXX",
"XXXXooooooooooooooooooooooooooooooooooooooooooooooooooooooooXXXX",
"XXXXooooooooooooooooooooooooOOOOooooooooooooooooooooooooOOOOXXXX",
"XXXXooooooooooooooooooooooooOOOOooooooooooooooooooooooooOOOOXXXX",
"XXXXooooooooooooooooooooooooOOOOooooooooooooooooooooooooOOOOXXXX",
"XXXXooooooooooooooooooooooooOOOOooooooooooooooooooooooooOOOOXXXX",
"XXXXOOOOooooooooooooooooooooooooooooooooooooooooooooOOOOOOOOXXXX",
"XXXXOOOOooooooooooooooooooooooooooooooooooooooooooooOOOOOOOOXXXX",
"XXXXOOOOooooooooooooooooooooooooooooooooooooooooooooOOOOOOOOXXXX",
"XXXXOOOOooooooooooooooooooooooooooooooooooooooooooooOOOOOOOOXXXX",
"XXXXooooOOOOooooooooooooooooooooooooooooooooooooOOOOooooOOOOXXXX",
"XXXXooooOOOOooooooooooooooooooooooooooooooooooooOOOOooooOOOOXXXX",
"XXXXooooOOOOooooooooooooooooooooooooooooooooooooOOOOooooOOOOXXXX",
"XXXXooooOOOOooooooooooooooooooooooooooooooooooooOOOOooooOOOOXXXX",
"XXXXOOOOooooOOOOooooOOOOooooOOOOooooooooooooOOOOOOOOOOOOOOOOXXXX",
"XXXXOOOOooooOOOOooooOOOOooooOOOOooooooooooooOOOOOOOOOOOOOOOOXXXX",
"XXXXOOOOooooOOOOooooOOOOooooOOOOooooooooooooOOOOOOOOOOOOOOOOXXXX",
"XXXXOOOOooooOOOOooooOOOOooooOOOOooooooooooooOOOOOOOOOOOOOOOOXXXX",
"....XXXXOOOOooooOOOOooooOOOOooooOOOOooooOOOOooooOOOOXXXXXXXX    ",
"....XXXXOOOOooooOOOOooooOOOOooooOOOOooooOOOOooooOOOOXXXXXXXX    ",
"....XXXXOOOOooooOOOOooooOOOOooooOOOOooooOOOOooooOOOOXXXXXXXX    ",
"....XXXXOOOOooooOOOOooooOOOOooooOOOOooooOOOOooooOOOOXXXXXXXX    ",
"    XXXXOOOOOOOOOOOOOOOOooooOOOOOOOOOOOOOOOOOOOOXXXXOOOOXXXX....",
"    XXXXOOOOOOOOOOOOOOOOooooOOOOOOOOOOOOOOOOOOOOXXXXOOOOXXXX....",
"    XXXXOOOOOOOOOOOOOOOOooooOOOOOOOOOOOOOOOOOOOOXXXXOOOOXXXX....",
"    XXXXOOOOOOOOOOOOOOOOooooOOOOOOOOOOOOOOOOOOOOXXXXOOOOXXXX....",
"....    XXXXOOOOOOOOXXXXOOOOXXXXOOOOXXXXOOOOXXXXOOOOXXXX        ",
"....    XXXXOOOOOOOOXXXXOOOOXXXXOOOOXXXXOOOOXXXXOOOOXXXX        ",
"....    XXXXOOOOOOOOXXXXOOOOXXXXOOOOXXXXOOOOXXXXOOOOXXXX        ",
"....    XXXXOOOOOOOOXXXXOOOOXXXXOOOOXXXXOOOOXXXXOOOOXXXX        ",
"........    XXXXXXXXOOOOXXXXOOOOXXXXOOOOXXXXXXXXXXXX        ....",
"........    XXXXXXXXOOOOXXXXOOOOXXXXOOOOXXXXXXXXXXXX        ....",
"........    XXXXXXXXOOOOXXXXOOOOXXXXOOOOXXXXXXXXXXXX        ....",
"........    XXXXXXXXOOOOXXXXOOOOXXXXOOOOXXXXXXXXXXXX        ....",
"....                XXXXXXXXXXXXXXXXXXXXXXXX            ....    ",
"....                XXXXXXXXXXXXXXXXXXXXXXXX            ....    ",
"....                XXXXXXXXXXXXXXXXXXXXXXXX            ....    ",
"....                XXXXXXXXXXXXXXXXXXXXXXXX            ....    "
};
