/* XPM */
static char *result[] = {
/* columns rows colors chars-per-pixel */
"64 64 4 1 ",
"  c gray8",
". c gray60",
"X c gray91",
"o c None",
/* pixels */
"oooooooooooooooooooooooooooooooooooooooooooooooooooooooooooooooo",
"oooooooooooooooooooooooooooooooooooooooooooooooooooooooooooooooo",
"oooooooooooooooooooooooooooooooooooooooooooooooooooooooooooooooo",
"oooooooooooooooooooooooooooooooooooooooooooooooooooooooooooooooo",
"oooooooooooooooooooo                        oooooooooooooooooooo",
"oooooooooooooooooooo                        oooooooooooooooooooo",
"oooooooooooooooooooo                        oooooooooooooooooooo",
"oooooooooooooooooooo                        oooooooooooooooooooo",
"oooooooooooooooo    ........................    oooooooooooooooo",
"oooooooooooooooo    ........................    oooooooooooooooo",
"oooooooooooooooo    ........................    oooooooooooooooo",
"oooooooooooooooo    ........................    oooooooooooooooo",
"oooooooooooo    ................................    oooooooooooo",
"oooooooooooo    ................................    oooooooooooo",
"oooooooooooo    ................................    oooooooooooo",
"oooooooooooo    ................................    oooooooooooo",
"oooooooooooo    ................................    oooooooooooo",
"oooooooooooo    ................................    oooooooooooo",
"oooooooooooo    ................................    oooooooooooo",
"oooooooooooo    ................................    oooooooooooo",
"oooooooo            ....XXXXXXXXXXXXXXXX....            oooooooo",
"oooooooo            ....XXXXXXXXXXXXXXXX....            oooooooo",
"oooooooo            ....XXXXXXXXXXXXXXXX....            oooooooo",
"oooooooo            ....XXXXXXXXXXXXXXXX....            oooooooo",
"oooooooo                                                oooooooo",
"oooooooo                                                oooooooo",
"oooooooo                                                oooooooo",
"oooooooo                                                oooooooo",
"oooo    XXXX    XXXXXXXXXXXXXXXXXXXXXXXXXXXXXXXX    XXXX    oooo",
"oooo    XXXX    XXXXXXXXXXXXXXXXXXXXXXXXXXXXXXXX    XXXX    oooo",
"oooo    XXXX    XXXXXXXXXXXXXXXXXXXXXXXXXXXXXXXX    XXXX    oooo",
"oooo    XXXX    XXXXXXXXXXXXXXXXXXXXXXXXXXXXXXXX    XXXX    oooo",
"oooo    XXXXXXXXXXXXXXXX    XXXXXXXX    XXXXXXXXXXXXXXXX    oooo",
"oooo    XXXXXXXXXXXXXXXX    XXXXXXXX    XXXXXXXXXXXXXXXX    oooo",
"oooo    XXXXXXXXXXXXXXXX    XXXXXXXX    XXXXXXXXXXXXXXXX    oooo",
"oooo    XXXXXXXXXXXXXXXX    XXXXXXXX    XXXXXXXXXXXXXXXX    oooo",
"oooooooo        XXXXXXXX    XXXXXXXX    XXXXXXXX            oooo",
"oooooooo        XXXXXXXX    XXXXXXXX    XXXXXXXX            oooo",
"oooooooo        XXXXXXXX    XXXXXXXX    XXXXXXXX            oooo",
"oooooooo        XXXXXXXX    XXXXXXXX    XXXXXXXX            oooo",
"oooooooo    ....    XXXXXXXX........XXXXXXXX        XXXX    oooo",
"oooooooo    ....    XXXXXXXX........XXXXXXXX        XXXX    oooo",
"oooooooo    ....    XXXXXXXX........XXXXXXXX        XXXX    oooo",
"oooooooo    ....    XXXXXXXX........XXXXXXXX        XXXX    oooo",
"oooooooo    XXXX                                        oooooooo",
"oooooooo    XXXX                                        oooooooo",
"oooooooo    XXXX                                        oooooooo",
"oooooooo    XXXX                                        oooooooo",
"oooooooo        XXXXXXXX                ....        oooooooooooo",
"oooooooo        XXXXXXXX                ....        oooooooooooo",
"oooooooo        XXXXXXXX                ....        oooooooooooo",
"oooooooo        XXXXXXXX                ....        oooooooooooo",
"oooooooooooo    XXXXXXXX    ........            oooooooooooooooo",
"oooooooooooo    XXXXXXXX    ........            oooooooooooooooo",
"oooooooooooo    XXXXXXXX    ........            oooooooooooooooo",
"oooooooooooo    XXXXXXXX    ........            oooooooooooooooo",
"oooooooooooooooo        oooo        ........    oooooooooooooooo",
"oooooooooooooooo        oooo        ........    oooooooooooooooo",
"oooooooooooooooo        oooo        ........    oooooooooooooooo",
"oooooooooooooooo        oooo        ........    oooooooooooooooo",
"oooooooooooooooooooooooooooooooo            oooooooooooooooooooo",
"oooooooooooooooooooooooooooooooo            oooooooooooooooooooo",
"oooooooooooooooooooooooooooooooo            oooooooooooooooooooo",
"oooooooooooooooooooooooooooooooo            oooooooooooooooooooo"
};
