/* XPM */
static char *result[] = {
/* columns rows colors chars-per-pixel */
"64 64 2 1 ",
"  c #A8E058",
". c #F8E8F8",
/* pixels */
"    ....    ....    ....            ....    ....    ....        ",
"    ....    ....    ....            ....    ....    ....        ",
"    ....    ....    ....            ....    ....    ....        ",
"    ....    ....    ....            ....    ....    ....        ",
"....    ............    ....    ....    ............    ....    ",
"....    ............    ....    ....    ............    ....    ",
"....    ............    ....    ....    ............    ....    ",
"....    ............    ....    ....    ............    ....    ",
"    ............            ....    ............            ....",
"    ............            ....    ............            ....",
"    ............            ....    ............            ....",
"    ............            ....    ............            ....",
"....    ....            ....    ....    ....            ....    ",
"....    ....            ....    ....    ....            ....    ",
"....    ....            ....    ....    ....            ....    ",
"....    ....            ....    ....    ....            ....    ",
"    ....            ....    ....    ....            ....    ....",
"    ....            ....    ....    ....            ....    ....",
"    ....            ....    ....    ....            ....    ....",
"    ....            ....    ....    ....            ....    ....",
"....    ....    ........        ....    ....    ........        ",
"....    ....    ........        ....    ....    ........        ",
"....    ....    ........        ....    ....    ........        ",
"....    ....    ........        ....    ....    ........        ",
"........    ........        ............    ........        ....",
"........    ........        ............    ........        ....",
"........    ........        ............    ........        ....",
"........    ........        ............    ........        ....",
"....                    ....    ....                    ....    ",
"....                    ....    ....                    ....    ",
"....                    ....    ....                    ....    ",
"....                    ....    ....                    ....    ",
"    ....    ....    ....            ....    ....    ....        ",
"    ....    ....    ....            ....    ....    ....        ",
"    ....    ....    ....            ....    ....    ....        ",
"    ....    ....    ....            ....    ....    ....        ",
"....    ............    ....    ....    ............    ....    ",
"....    ............    ....    ....    ............    ....    ",
"....    ............    ....    ....    ............    ....    ",
"....    ............    ....    ....    ............    ....    ",
"    ............            ....    ............            ....",
"    ............            ....    ............            ....",
"    ............            ....    ............            ....",
"    ............            ....    ............            ....",
"....    ....            ....    ....    ....            ....    ",
"....    ....            ....    ....    ....            ....    ",
"....    ....            ....    ....    ....            ....    ",
"....    ....            ....    ....    ....            ....    ",
"    ....            ....    ....    ....            ....    ....",
"    ....            ....    ....    ....            ....    ....",
"    ....            ....    ....    ....            ....    ....",
"    ....            ....    ....    ....            ....    ....",
"....    ....    ........        ....    ....    ........        ",
"....    ....    ........        ....    ....    ........        ",
"....    ....    ........        ....    ....    ........        ",
"....    ....    ........        ....    ....    ........        ",
"........    ........        ............    ........        ....",
"........    ........        ............    ........        ....",
"........    ........        ............    ........        ....",
"........    ........        ............    ........        ....",
"....                    ....    ....                    ....    ",
"....                    ....    ....                    ....    ",
"....                    ....    ....                    ....    ",
"....                    ....    ....                    ....    "
};
