/* XPM */
static char *result[] = {
/* columns rows colors chars-per-pixel */
"64 64 3 1 ",
"  c #A8E058",
". c #F8E8F8",
"X c #A0D0F8",
/* pixels */
"    ........................XXXX    ........................XXXX",
"    ........................XXXX    ........................XXXX",
"    ........................XXXX    ........................XXXX",
"    ........................XXXX    ........................XXXX",
"........................XXXX....XXXX....................XXXX....",
"........................XXXX....XXXX....................XXXX....",
"........................XXXX....XXXX....................XXXX....",
"........................XXXX....XXXX....................XXXX....",
"....XXXXXXXX........XXXX        XXXXXXXXXXXX........XXXX        ",
"....XXXXXXXX........XXXX        XXXXXXXXXXXX........XXXX        ",
"....XXXXXXXX........XXXX        XXXXXXXXXXXX........XXXX        ",
"....XXXXXXXX........XXXX        XXXXXXXXXXXX........XXXX        ",
"....XXXX....XXXX....XXXX    XXXX    XXXX....XXXX....XXXX    XXXX",
"....XXXX....XXXX....XXXX    XXXX    XXXX....XXXX....XXXX    XXXX",
"....XXXX....XXXX....XXXX    XXXX    XXXX....XXXX....XXXX    XXXX",
"....XXXX....XXXX....XXXX    XXXX    XXXX....XXXX....XXXX    XXXX",
"    XXXX....    XXXXXXXXXXXXXXXX....XXXX....    XXXXXXXXXXXXXXXX",
"    XXXX....    XXXXXXXXXXXXXXXX....XXXX....    XXXXXXXXXXXXXXXX",
"    XXXX....    XXXXXXXXXXXXXXXX....XXXX....    XXXXXXXXXXXXXXXX",
"    XXXX....    XXXXXXXXXXXXXXXX....XXXX....    XXXXXXXXXXXXXXXX",
"........XXXX....    XXXXXXXX    ........XXXX....    XXXXXXXX    ",
"........XXXX....    XXXXXXXX    ........XXXX....    XXXXXXXX    ",
"........XXXX....    XXXXXXXX    ........XXXX....    XXXXXXXX    ",
"........XXXX....    XXXXXXXX    ........XXXX....    XXXXXXXX    ",
"            XXXX    XXXXXXXX........        XXXX    XXXXXXXX....",
"            XXXX    XXXXXXXX........        XXXX    XXXXXXXX....",
"            XXXX    XXXXXXXX........        XXXX    XXXXXXXX....",
"            XXXX    XXXXXXXX........        XXXX    XXXXXXXX....",
"........        XXXXXXXX    ............        XXXXXXXX    ....",
"........        XXXXXXXX    ............        XXXXXXXX    ....",
"........        XXXXXXXX    ............        XXXXXXXX    ....",
"........        XXXXXXXX    ............        XXXXXXXX    ....",
"    ........................XXXX    ........................XXXX",
"    ........................XXXX    ........................XXXX",
"    ........................XXXX    ........................XXXX",
"    ........................XXXX    ........................XXXX",
"    ....................XXXX....XXXX....................XXXX....",
"    ....................XXXX....XXXX....................XXXX....",
"    ....................XXXX....XXXX....................XXXX....",
"    ....................XXXX....XXXX....................XXXX....",
"....XXXXXXXX........XXXX        XXXXXXXXXXXX........XXXX        ",
"....XXXXXXXX........XXXX        XXXXXXXXXXXX........XXXX        ",
"....XXXXXXXX........XXXX        XXXXXXXXXXXX........XXXX        ",
"....XXXXXXXX........XXXX        XXXXXXXXXXXX........XXXX        ",
"    XXXX....XXXX....XXXX    XXXX    XXXX....XXXX....XXXX    XXXX",
"    XXXX....XXXX....XXXX    XXXX    XXXX....XXXX....XXXX    XXXX",
"    XXXX....XXXX....XXXX    XXXX    XXXX....XXXX....XXXX    XXXX",
"    XXXX....XXXX....XXXX    XXXX    XXXX....XXXX....XXXX    XXXX",
"....XXXX....    XXXXXXXXXXXXXXXX....XXXX....    XXXXXXXXXXXXXXXX",
"....XXXX....    XXXXXXXXXXXXXXXX....XXXX....    XXXXXXXXXXXXXXXX",
"....XXXX....    XXXXXXXXXXXXXXXX....XXXX....    XXXXXXXXXXXXXXXX",
"....XXXX....    XXXXXXXXXXXXXXXX....XXXX....    XXXXXXXXXXXXXXXX",
"........XXXX....    XXXXXXXX    ........XXXX....    XXXXXXXX    ",
"........XXXX....    XXXXXXXX    ........XXXX....    XXXXXXXX    ",
"........XXXX....    XXXXXXXX    ........XXXX....    XXXXXXXX    ",
"........XXXX....    XXXXXXXX    ........XXXX....    XXXXXXXX    ",
"            XXXX    XXXXXXXX........        XXXX    XXXXXXXX....",
"            XXXX    XXXXXXXX........        XXXX    XXXXXXXX....",
"            XXXX    XXXXXXXX........        XXXX    XXXXXXXX....",
"            XXXX    XXXXXXXX........        XXXX    XXXXXXXX....",
"    ....        XXXXXXXX    ............        XXXXXXXX    ....",
"    ....        XXXXXXXX    ............        XXXXXXXX    ....",
"    ....        XXXXXXXX    ............        XXXXXXXX    ....",
"    ....        XXXXXXXX    ............        XXXXXXXX    ...."
};
