/* XPM */
static char *result[] = {
/* columns rows colors chars-per-pixel */
"64 64 4 1 ",
"  c gray8",
". c gray60",
"X c gray91",
"o c None",
/* pixels */
"oooooooooooooooooooo                        oooooooooooooooooooo",
"oooooooooooooooooooo                        oooooooooooooooooooo",
"oooooooooooooooooooo                        oooooooooooooooooooo",
"oooooooooooooooooooo                        oooooooooooooooooooo",
"oooooooooooooooo    ........................    oooooooooooooooo",
"oooooooooooooooo    ........................    oooooooooooooooo",
"oooooooooooooooo    ........................    oooooooooooooooo",
"oooooooooooooooo    ........................    oooooooooooooooo",
"oooooooooooo    ................................    oooooooooooo",
"oooooooooooo    ................................    oooooooooooo",
"oooooooooooo    ................................    oooooooooooo",
"oooooooooooo    ................................    oooooooooooo",
"oooooooo        XXXX............................    oooooooooooo",
"oooooooo        XXXX............................    oooooooooooo",
"oooooooo        XXXX............................    oooooooooooo",
"oooooooo        XXXX............................    oooooooooooo",
"oooo    XXXXXXXXXXXXXXXX....................            oooooooo",
"oooo    XXXXXXXXXXXXXXXX....................            oooooooo",
"oooo    XXXXXXXXXXXXXXXX....................            oooooooo",
"oooo    XXXXXXXXXXXXXXXX....................            oooooooo",
"oooooooo        ............                            oooooooo",
"oooooooo        ............                            oooooooo",
"oooooooo        ............                            oooooooo",
"oooooooo        ............                            oooooooo",
"oooooooooooo    XXXX    XXXXXXXX                        oooooooo",
"oooooooooooo    XXXX    XXXXXXXX                        oooooooo",
"oooooooooooo    XXXX    XXXXXXXX                        oooooooo",
"oooooooooooo    XXXX    XXXXXXXX                        oooooooo",
"oooooooooooo    XXXX    XXXXXXXX    XXXXXXXX        oooooooooooo",
"oooooooooooo    XXXX    XXXXXXXX    XXXXXXXX        oooooooooooo",
"oooooooooooo    XXXX    XXXXXXXX    XXXXXXXX        oooooooooooo",
"oooooooooooo    XXXX    XXXXXXXX    XXXXXXXX        oooooooooooo",
"oooooooooooo    XXXXXXXXXXXXXXXXXXXXXXXXXXXX    oooooooooooooooo",
"oooooooooooo    XXXXXXXXXXXXXXXXXXXXXXXXXXXX    oooooooooooooooo",
"oooooooooooo    XXXXXXXXXXXXXXXXXXXXXXXXXXXX    oooooooooooooooo",
"oooooooooooo    XXXXXXXXXXXXXXXXXXXXXXXXXXXX    oooooooooooooooo",
"oooooooooooooooo    ....XXXXXXXXXXXX        ....    oooooooooooo",
"oooooooooooooooo    ....XXXXXXXXXXXX        ....    oooooooooooo",
"oooooooooooooooo    ....XXXXXXXXXXXX        ....    oooooooooooo",
"oooooooooooooooo    ....XXXXXXXXXXXX        ....    oooooooooooo",
"oooooooooooooooooooo                    ........    oooooooooooo",
"oooooooooooooooooooo                    ........    oooooooooooo",
"oooooooooooooooooooo                    ........    oooooooooooo",
"oooooooooooooooooooo                    ........    oooooooooooo",
"oooooooooooooooooooooooo        XXXXXXXX    ....    oooooooooooo",
"oooooooooooooooooooooooo        XXXXXXXX    ....    oooooooooooo",
"oooooooooooooooooooooooo        XXXXXXXX    ....    oooooooooooo",
"oooooooooooooooooooooooo        XXXXXXXX    ....    oooooooooooo",
"oooooooooooooooooooooooo        XXXXXXXX    ....    oooooooooooo",
"oooooooooooooooooooooooo        XXXXXXXX    ....    oooooooooooo",
"oooooooooooooooooooooooo        XXXXXXXX    ....    oooooooooooo",
"oooooooooooooooooooooooo        XXXXXXXX    ....    oooooooooooo",
"oooooooooooooooooooo    ........                oooooooooooooooo",
"oooooooooooooooooooo    ........                oooooooooooooooo",
"oooooooooooooooooooo    ........                oooooooooooooooo",
"oooooooooooooooooooo    ........                oooooooooooooooo",
"oooooooooooooooooooo    ................    oooooooooooooooooooo",
"oooooooooooooooooooo    ................    oooooooooooooooooooo",
"oooooooooooooooooooo    ................    oooooooooooooooooooo",
"oooooooooooooooooooo    ................    oooooooooooooooooooo",
"oooooooooooooooooooooooo                oooooooooooooooooooooooo",
"oooooooooooooooooooooooo                oooooooooooooooooooooooo",
"oooooooooooooooooooooooo                oooooooooooooooooooooooo",
"oooooooooooooooooooooooo                oooooooooooooooooooooooo"
};
