/* XPM */
static char *result[] = {
/* columns rows colors chars-per-pixel */
"64 64 4 1 ",
"  c gray8",
". c gray60",
"X c gray91",
"o c None",
/* pixels */
"oooooooooooooooooooooooooooooooooooooooooooooooooooooooooooooooo",
"oooooooooooooooooooooooooooooooooooooooooooooooooooooooooooooooo",
"oooooooooooooooooooooooooooooooooooooooooooooooooooooooooooooooo",
"oooooooooooooooooooooooooooooooooooooooooooooooooooooooooooooooo",
"oooooooooooooooooooo                        oooooooooooooooooooo",
"oooooooooooooooooooo                        oooooooooooooooooooo",
"oooooooooooooooooooo                        oooooooooooooooooooo",
"oooooooooooooooooooo                        oooooooooooooooooooo",
"oooooooooooooooo    ........................    oooooooooooooooo",
"oooooooooooooooo    ........................    oooooooooooooooo",
"oooooooooooooooo    ........................    oooooooooooooooo",
"oooooooooooooooo    ........................    oooooooooooooooo",
"oooooooooooo    ................................    oooooooooooo",
"oooooooooooo    ................................    oooooooooooo",
"oooooooooooo    ................................    oooooooooooo",
"oooooooooooo    ................................    oooooooooooo",
"oooooooo        XXXX............................    oooooooooooo",
"oooooooo        XXXX............................    oooooooooooo",
"oooooooo        XXXX............................    oooooooooooo",
"oooooooo        XXXX............................    oooooooooooo",
"oooo    XXXXXXXXXXXXXXXX....................            oooooooo",
"oooo    XXXXXXXXXXXXXXXX....................            oooooooo",
"oooo    XXXXXXXXXXXXXXXX....................            oooooooo",
"oooo    XXXXXXXXXXXXXXXX....................            oooooooo",
"oooooooo        ............                            oooooooo",
"oooooooo        ............                            oooooooo",
"oooooooo        ............                            oooooooo",
"oooooooo        ............                            oooooooo",
"oooooooooooo    XXXX    XXXXXXXX                        oooooooo",
"oooooooooooo    XXXX    XXXXXXXX                        oooooooo",
"oooooooooooo    XXXX    XXXXXXXX                        oooooooo",
"oooooooooooo    XXXX    XXXXXXXX                        oooooooo",
"oooooooooooo    XXXX    XXXXXXXX    XXXXXXXX        oooooooooooo",
"oooooooooooo    XXXX    XXXXXXXX    XXXXXXXX        oooooooooooo",
"oooooooooooo    XXXX    XXXXXXXX    XXXXXXXX        oooooooooooo",
"oooooooooooo    XXXX    XXXXXXXX    XXXXXXXX        oooooooooooo",
"oooooooooooo    XXXXXXXXXXXXXXXXXXXXXXXXXXXX    oooooooooooooooo",
"oooooooooooo    XXXXXXXXXXXXXXXXXXXXXXXXXXXX    oooooooooooooooo",
"oooooooooooo    XXXXXXXXXXXXXXXXXXXXXXXXXXXX    oooooooooooooooo",
"oooooooooooo    XXXXXXXXXXXXXXXXXXXXXXXXXXXX    oooooooooooooooo",
"oooooooooooooooo    ....XXXXXXXXXXXX        ....    oooooooooooo",
"oooooooooooooooo    ....XXXXXXXXXXXX        ....    oooooooooooo",
"oooooooooooooooo    ....XXXXXXXXXXXX        ....    oooooooooooo",
"oooooooooooooooo    ....XXXXXXXXXXXX        ....    oooooooooooo",
"oooooooooooooooooooo                        ....    oooooooooooo",
"oooooooooooooooooooo                        ....    oooooooooooo",
"oooooooooooooooooooo                        ....    oooooooooooo",
"oooooooooooooooooooo                        ....    oooooooooooo",
"oooooooooooo                        XXXXXXXX        oooooooooooo",
"oooooooooooo                        XXXXXXXX        oooooooooooo",
"oooooooooooo                        XXXXXXXX        oooooooooooo",
"oooooooooooo                        XXXXXXXX        oooooooooooo",
"oooooooo    ........    ........    XXXXXXXX    ....    oooooooo",
"oooooooo    ........    ........    XXXXXXXX    ....    oooooooo",
"oooooooo    ........    ........    XXXXXXXX    ....    oooooooo",
"oooooooo    ........    ........    XXXXXXXX    ....    oooooooo",
"oooooooooooo    ........                    ........    oooooooo",
"oooooooooooo    ........                    ........    oooooooo",
"oooooooooooo    ........                    ........    oooooooo",
"oooooooooooo    ........                    ........    oooooooo",
"oooooooooooooooo            oooooooooooooooo        oooooooooooo",
"oooooooooooooooo            oooooooooooooooo        oooooooooooo",
"oooooooooooooooo            oooooooooooooooo        oooooooooooo",
"oooooooooooooooo            oooooooooooooooo        oooooooooooo"
};
