/* XPM */
static char *result[] = {
/* columns rows colors chars-per-pixel */
"64 64 4 1 ",
"  c gray8",
". c gray60",
"X c gray91",
"o c None",
/* pixels */
"oooooooooooooooooooooooooooooooooooooooooooooooooooooooooooooooo",
"oooooooooooooooooooooooooooooooooooooooooooooooooooooooooooooooo",
"oooooooooooooooooooooooooooooooooooooooooooooooooooooooooooooooo",
"oooooooooooooooooooooooooooooooooooooooooooooooooooooooooooooooo",
"oooooooooooooooooooo                        oooooooooooooooooooo",
"oooooooooooooooooooo                        oooooooooooooooooooo",
"oooooooooooooooooooo                        oooooooooooooooooooo",
"oooooooooooooooooooo                        oooooooooooooooooooo",
"oooooooooooooooo    ........................    oooooooooooooooo",
"oooooooooooooooo    ........................    oooooooooooooooo",
"oooooooooooooooo    ........................    oooooooooooooooo",
"oooooooooooooooo    ........................    oooooooooooooooo",
"oooooooooooo    ................................    oooooooooooo",
"oooooooooooo    ................................    oooooooooooo",
"oooooooooooo    ................................    oooooooooooo",
"oooooooooooo    ................................    oooooooooooo",
"oooooooooooo    ............................XXXX        oooooooo",
"oooooooooooo    ............................XXXX        oooooooo",
"oooooooooooo    ............................XXXX        oooooooo",
"oooooooooooo    ............................XXXX        oooooooo",
"oooooooo            ....................XXXXXXXXXXXXXXXX    oooo",
"oooooooo            ....................XXXXXXXXXXXXXXXX    oooo",
"oooooooo            ....................XXXXXXXXXXXXXXXX    oooo",
"oooooooo            ....................XXXXXXXXXXXXXXXX    oooo",
"oooooooo                            ............        oooooooo",
"oooooooo                            ............        oooooooo",
"oooooooo                            ............        oooooooo",
"oooooooo                            ............        oooooooo",
"oooooooo                        XXXXXXXX    XXXX    oooooooooooo",
"oooooooo                        XXXXXXXX    XXXX    oooooooooooo",
"oooooooo                        XXXXXXXX    XXXX    oooooooooooo",
"oooooooo                        XXXXXXXX    XXXX    oooooooooooo",
"oooooooooooo        XXXXXXXX    XXXXXXXX    XXXX    oooooooooooo",
"oooooooooooo        XXXXXXXX    XXXXXXXX    XXXX    oooooooooooo",
"oooooooooooo        XXXXXXXX    XXXXXXXX    XXXX    oooooooooooo",
"oooooooooooo        XXXXXXXX    XXXXXXXX    XXXX    oooooooooooo",
"oooooooooooooooo    XXXXXXXXXXXXXXXXXXXXXXXXXXXX    oooooooooooo",
"oooooooooooooooo    XXXXXXXXXXXXXXXXXXXXXXXXXXXX    oooooooooooo",
"oooooooooooooooo    XXXXXXXXXXXXXXXXXXXXXXXXXXXX    oooooooooooo",
"oooooooooooooooo    XXXXXXXXXXXXXXXXXXXXXXXXXXXX    oooooooooooo",
"oooooooooooo    ....        XXXXXXXXXXXX....    oooooooooooooooo",
"oooooooooooo    ....        XXXXXXXXXXXX....    oooooooooooooooo",
"oooooooooooo    ....        XXXXXXXXXXXX....    oooooooooooooooo",
"oooooooooooo    ....        XXXXXXXXXXXX....    oooooooooooooooo",
"oooooooooooo    ....                        oooooooooooooooooooo",
"oooooooooooo    ....                        oooooooooooooooooooo",
"oooooooooooo    ....                        oooooooooooooooooooo",
"oooooooooooo    ....                        oooooooooooooooooooo",
"oooooooooooo        XXXXXXXX                        oooooooooooo",
"oooooooooooo        XXXXXXXX                        oooooooooooo",
"oooooooooooo        XXXXXXXX                        oooooooooooo",
"oooooooooooo        XXXXXXXX                        oooooooooooo",
"oooooooo    ....    XXXXXXXX    ........    ........    oooooooo",
"oooooooo    ....    XXXXXXXX    ........    ........    oooooooo",
"oooooooo    ....    XXXXXXXX    ........    ........    oooooooo",
"oooooooo    ....    XXXXXXXX    ........    ........    oooooooo",
"oooooooo    ........                    ........    oooooooooooo",
"oooooooo    ........                    ........    oooooooooooo",
"oooooooo    ........                    ........    oooooooooooo",
"oooooooo    ........                    ........    oooooooooooo",
"oooooooooooo        oooooooooooooooo            oooooooooooooooo",
"oooooooooooo        oooooooooooooooo            oooooooooooooooo",
"oooooooooooo        oooooooooooooooo            oooooooooooooooo",
"oooooooooooo        oooooooooooooooo            oooooooooooooooo"
};
