/* XPM */
static char *result[] = {
/* columns rows colors chars-per-pixel */
"64 64 4 1 ",
"  c gray8",
". c gray60",
"X c gray91",
"o c None",
/* pixels */
"oooooooo    ....oooooooooooooooooooooooooooooooo....    oooooooo",
"oooooooo    ....oooooooooooooooooooooooooooooooo....    oooooooo",
"oooooooo    ....oooooooooooooooooooooooooooooooo....    oooooooo",
"oooooooo    ....oooooooooooooooooooooooooooooooo....    oooooooo",
"oooooooo        ....                        ....        oooooooo",
"oooooooo        ....                        ....        oooooooo",
"oooooooo        ....                        ....        oooooooo",
"oooooooo        ....                        ....        oooooooo",
"oooooooo            ....                ....            oooooooo",
"oooooooo            ....                ....            oooooooo",
"oooooooo            ....                ....            oooooooo",
"oooooooo            ....                ....            oooooooo",
"oooooooo....    ....XXXXXXXXXXXXXXXXXXXXXXXX....    ....oooooooo",
"oooooooo....    ....XXXXXXXXXXXXXXXXXXXXXXXX....    ....oooooooo",
"oooooooo....    ....XXXXXXXXXXXXXXXXXXXXXXXX....    ....oooooooo",
"oooooooo....    ....XXXXXXXXXXXXXXXXXXXXXXXX....    ....oooooooo",
"oooooooo    ....        XXXXXXXXXXXXXXXX        ....    oooooooo",
"oooooooo    ....        XXXXXXXXXXXXXXXX        ....    oooooooo",
"oooooooo    ....        XXXXXXXXXXXXXXXX        ....    oooooooo",
"oooooooo    ....        XXXXXXXXXXXXXXXX        ....    oooooooo",
"oooo        XXXXXXXXXXXXXXXX        XXXXXXXXXXXXXXXX        oooo",
"oooo        XXXXXXXXXXXXXXXX        XXXXXXXXXXXXXXXX        oooo",
"oooo        XXXXXXXXXXXXXXXX        XXXXXXXXXXXXXXXX        oooo",
"oooo        XXXXXXXXXXXXXXXX        XXXXXXXXXXXXXXXX        oooo",
"    XXXX....    ................................    ....XXXX    ",
"    XXXX....    ................................    ....XXXX    ",
"    XXXX....    ................................    ....XXXX    ",
"    XXXX....    ................................    ....XXXX    ",
"    ....    ....XXXXXXXXXXXXXXXXXXXXXXXXXXXXXXXX....    ....    ",
"    ....    ....XXXXXXXXXXXXXXXXXXXXXXXXXXXXXXXX....    ....    ",
"    ....    ....XXXXXXXXXXXXXXXXXXXXXXXXXXXXXXXX....    ....    ",
"    ....    ....XXXXXXXXXXXXXXXXXXXXXXXXXXXXXXXX....    ....    ",
"oooo    ....XXXXXXXXXXXXXXXXXXXXXXXXXXXXXXXXXXXX........    oooo",
"oooo    ....XXXXXXXXXXXXXXXXXXXXXXXXXXXXXXXXXXXX........    oooo",
"oooo    ....XXXXXXXXXXXXXXXXXXXXXXXXXXXXXXXXXXXX........    oooo",
"oooo    ....XXXXXXXXXXXXXXXXXXXXXXXXXXXXXXXXXXXX........    oooo",
"oooo    ....XXXXXXXXXXXXXXXXXXXXXXXXXXXXXXXX............    oooo",
"oooo    ....XXXXXXXXXXXXXXXXXXXXXXXXXXXXXXXX............    oooo",
"oooo    ....XXXXXXXXXXXXXXXXXXXXXXXXXXXXXXXX............    oooo",
"oooo    ....XXXXXXXXXXXXXXXXXXXXXXXXXXXXXXXX............    oooo",
"oooo        ....XXXXXXXXXXXXXXXXXXXX................        oooo",
"oooo        ....XXXXXXXXXXXXXXXXXXXX................        oooo",
"oooo        ....XXXXXXXXXXXXXXXXXXXX................        oooo",
"oooo        ....XXXXXXXXXXXXXXXXXXXX................        oooo",
"....XXXXXXXX        ........................        XXXXXXXX....",
"....XXXXXXXX        ........................        XXXXXXXX....",
"....XXXXXXXX        ........................        XXXXXXXX....",
"....XXXXXXXX        ........................        XXXXXXXX....",
"    XXXXXXXX....                                ....XXXXXXXX    ",
"    XXXXXXXX....                                ....XXXXXXXX    ",
"    XXXXXXXX....                                ....XXXXXXXX    ",
"    XXXXXXXX....                                ....XXXXXXXX    ",
"    ............                                ............    ",
"    ............                                ............    ",
"    ............                                ............    ",
"    ............                                ............    ",
"oooo            ................................            oooo",
"oooo            ................................            oooo",
"oooo            ................................            oooo",
"oooo            ................................            oooo",
"oooooooooooooooooooooooooooooooooooooooooooooooooooooooooooooooo",
"oooooooooooooooooooooooooooooooooooooooooooooooooooooooooooooooo",
"oooooooooooooooooooooooooooooooooooooooooooooooooooooooooooooooo",
"oooooooooooooooooooooooooooooooooooooooooooooooooooooooooooooooo"
};
