/* XPM */
static char *result[] = {
/* columns rows colors chars-per-pixel */
"64 64 4 1 ",
"  c gray8",
". c gray60",
"X c gray91",
"o c None",
/* pixels */
"oooooooooooooooooooooooooooooooooooooooooooooooooooooooooooooooo",
"oooooooooooooooooooooooooooooooooooooooooooooooooooooooooooooooo",
"oooooooooooooooooooooooooooooooooooooooooooooooooooooooooooooooo",
"oooooooooooooooooooooooooooooooooooooooooooooooooooooooooooooooo",
"oooooooooooooooooooo                        oooooooooooooooooooo",
"oooooooooooooooooooo                        oooooooooooooooooooo",
"oooooooooooooooooooo                        oooooooooooooooooooo",
"oooooooooooooooooooo                        oooooooooooooooooooo",
"oooooooooooooooo    ........................    oooooooooooooooo",
"oooooooooooooooo    ........................    oooooooooooooooo",
"oooooooooooooooo    ........................    oooooooooooooooo",
"oooooooooooooooo    ........................    oooooooooooooooo",
"oooooooooooo    ................................    oooooooooooo",
"oooooooooooo    ................................    oooooooooooo",
"oooooooooooo    ................................    oooooooooooo",
"oooooooooooo    ................................    oooooooooooo",
"oooooooooooo    ................................    oooooooooooo",
"oooooooooooo    ................................    oooooooooooo",
"oooooooooooo    ................................    oooooooooooo",
"oooooooooooo    ................................    oooooooooooo",
"oooooooo        ................................        oooooooo",
"oooooooo        ................................        oooooooo",
"oooooooo        ................................        oooooooo",
"oooooooo        ................................        oooooooo",
"oooooooo            ........................            oooooooo",
"oooooooo            ........................            oooooooo",
"oooooooo            ........................            oooooooo",
"oooooooo            ........................            oooooooo",
"oooo    XXXX                                        XXXX    oooo",
"oooo    XXXX                                        XXXX    oooo",
"oooo    XXXX                                        XXXX    oooo",
"oooo    XXXX                                        XXXX    oooo",
"oooo    XXXXXXXX                                XXXXXXXX    oooo",
"oooo    XXXXXXXX                                XXXXXXXX    oooo",
"oooo    XXXXXXXX                                XXXXXXXX    oooo",
"oooo    XXXXXXXX                                XXXXXXXX    oooo",
"oooooooo        XXXXXXXX                XXXXXXXX            oooo",
"oooooooo        XXXXXXXX                XXXXXXXX            oooo",
"oooooooo        XXXXXXXX                XXXXXXXX            oooo",
"oooooooo        XXXXXXXX                XXXXXXXX            oooo",
"oooooooo                ................            XXXX    oooo",
"oooooooo                ................            XXXX    oooo",
"oooooooo                ................            XXXX    oooo",
"oooooooo                ................            XXXX    oooo",
"oooo    XXXXXXXX    ....                ....            oooooooo",
"oooo    XXXXXXXX    ....                ....            oooooooo",
"oooo    XXXXXXXX    ....                ....            oooooooo",
"oooo    XXXXXXXX    ....                ....            oooooooo",
"oooo    XXXXXXXX    ........XXXXXXXX........        oooooooooooo",
"oooo    XXXXXXXX    ........XXXXXXXX........        oooooooooooo",
"oooo    XXXXXXXX    ........XXXXXXXX........        oooooooooooo",
"oooo    XXXXXXXX    ........XXXXXXXX........        oooooooooooo",
"oooooooo                ................        oooooooooooooooo",
"oooooooo                ................        oooooooooooooooo",
"oooooooo                ................        oooooooooooooooo",
"oooooooo                ................        oooooooooooooooo",
"oooooooooooooooooooooooo                ....    oooooooooooooooo",
"oooooooooooooooooooooooo                ....    oooooooooooooooo",
"oooooooooooooooooooooooo                ....    oooooooooooooooo",
"oooooooooooooooooooooooo                ....    oooooooooooooooo",
"oooooooooooooooooooooooooooooooo            oooooooooooooooooooo",
"oooooooooooooooooooooooooooooooo            oooooooooooooooooooo",
"oooooooooooooooooooooooooooooooo            oooooooooooooooooooo",
"oooooooooooooooooooooooooooooooo            oooooooooooooooooooo"
};
