/* XPM */
static char *result[] = {
/* columns rows colors chars-per-pixel */
"64 64 4 1 ",
"  c #A8E058",
". c #F8E8F8",
"X c #181010",
"o c #A0D0F8",
/* pixels */
"    ....    ....    ....            ....    ....    ....        ",
"    ....    ....    ....            ....    ....    ....        ",
"    ....    ....    ....            ....    ....    ....        ",
"    ....    ....    ....            ....    ....    ....        ",
"....    ............    ....    ....    ............    ....    ",
"....    ............    ....    ....    ............    ....    ",
"....    ............    ....    ....    ............    ....    ",
"....    ............    ....    ....    ............    ....    ",
"    ............            ....    ............            ....",
"    ............            ....    ............            ....",
"    ............            ....    ............            ....",
"    ............            ....    ............            ....",
"....    ....            ....    ....    ....            ....    ",
"....    ....            ....    ....    ....            ....    ",
"....    ....            ....    ....    ....            ....    ",
"....    ....            ....    ....    ....            ....    ",
"    ....            ....    ....    ....            ....    ....",
"    ....            ....    ....    ....            ....    ....",
"    ....            ....    ....    ....            ....    ....",
"    ....            ....    ....    ....            ....    ....",
"....    ....    ........        ....    ....    ........        ",
"....    ....    ........        ....    ....    ........        ",
"....    ....    ........        ....    ....    ........        ",
"....    ....    ........        ....    ....    ........        ",
"........    ........        ............    ........        ....",
"........    ........        ............    ........        ....",
"........    ........        ............    ........        ....",
"........    ........        ............    ........        ....",
"....                    ....    ....                    ....    ",
"....                    ....    ....                    ....    ",
"....                    ....    ....                    ....    ",
"....                    ....    ....                    ....    ",
"XXXX    oooo    oooo    ooooXXXXXXXX    oooo    oooo    ooooXXXX",
"XXXX    oooo    oooo    ooooXXXXXXXX    oooo    oooo    ooooXXXX",
"XXXX    oooo    oooo    ooooXXXXXXXX    oooo    oooo    ooooXXXX",
"XXXX    oooo    oooo    ooooXXXXXXXX    oooo    oooo    ooooXXXX",
"....XXXX....ooooooooXXXXoooo........XXXX....ooooooooXXXXoooo....",
"....XXXX....ooooooooXXXXoooo........XXXX....ooooooooXXXXoooo....",
"....XXXX....ooooooooXXXXoooo........XXXX....ooooooooXXXXoooo....",
"....XXXX....ooooooooXXXXoooo........XXXX....ooooooooXXXXoooo....",
"........ooooXXXXXXXXoooo................ooooXXXXXXXXoooo........",
"........ooooXXXXXXXXoooo................ooooXXXXXXXXoooo........",
"........ooooXXXXXXXXoooo................ooooXXXXXXXXoooo........",
"........ooooXXXXXXXXoooo................ooooXXXXXXXXoooo........",
"........ooooXXXXXXXX    oooo............ooooXXXXXXXX    oooo....",
"........ooooXXXXXXXX    oooo............ooooXXXXXXXX    oooo....",
"........ooooXXXXXXXX    oooo............ooooXXXXXXXX    oooo....",
"........ooooXXXXXXXX    oooo............ooooXXXXXXXX    oooo....",
"....oooo    XXXX    XXXXoooooooo....oooo    XXXX    XXXXoooooooo",
"....oooo    XXXX    XXXXoooooooo....oooo    XXXX    XXXXoooooooo",
"....oooo    XXXX    XXXXoooooooo....oooo    XXXX    XXXXoooooooo",
"....oooo    XXXX    XXXXoooooooo....oooo    XXXX    XXXXoooooooo",
"oooo    XXXX    XXXXXXXXoooooooooooo    XXXX    XXXXXXXXoooooooo",
"oooo    XXXX    XXXXXXXXoooooooooooo    XXXX    XXXXXXXXoooooooo",
"oooo    XXXX    XXXXXXXXoooooooooooo    XXXX    XXXXXXXXoooooooo",
"oooo    XXXX    XXXXXXXXoooooooooooo    XXXX    XXXXXXXXoooooooo",
"ooooooooXXXXXXXX    ooooXXXXXXXXooooooooXXXXXXXX    ooooXXXXXXXX",
"ooooooooXXXXXXXX    ooooXXXXXXXXooooooooXXXXXXXX    ooooXXXXXXXX",
"ooooooooXXXXXXXX    ooooXXXXXXXXooooooooXXXXXXXX    ooooXXXXXXXX",
"ooooooooXXXXXXXX    ooooXXXXXXXXooooooooXXXXXXXX    ooooXXXXXXXX",
"XXXXXXXXXXXX                XXXXXXXXXXXXXXXX                XXXX",
"XXXXXXXXXXXX                XXXXXXXXXXXXXXXX                XXXX",
"XXXXXXXXXXXX                XXXXXXXXXXXXXXXX                XXXX",
"XXXXXXXXXXXX                XXXXXXXXXXXXXXXX                XXXX"
};
