/* XPM */
static char *result[] = {
/* columns rows colors chars-per-pixel */
"64 64 4 1 ",
"  c #A8E058",
". c #F8E8F8",
"X c #181010",
"o c #A0D0F8",

/* pixels */
"    ....    ....    XXXXXXXXXXXXXXXXoooo....    ....    ....    ",
"    ....    ....    XXXXXXXXXXXXXXXXoooo....    ....    ....    ",
"    ....    ....    XXXXXXXXXXXXXXXXoooo....    ....    ....    ",
"    ....    ....    XXXXXXXXXXXXXXXXoooo....    ....    ....    ",
"....    ooooooooXXXX    ............XXXXXXXXoooo    ....    ....",
"....    ooooooooXXXX    ............XXXXXXXXoooo    ....    ....",
"....    ooooooooXXXX    ............XXXXXXXXoooo    ....    ....",
"....    ooooooooXXXX    ............XXXXXXXXoooo    ....    ....",
"    ....    XXXX    ............    ....XXXXXXXX    oooo    ....",
"    ....    XXXX    ............    ....XXXXXXXX    oooo    ....",
"    ....    XXXX    ............    ....XXXXXXXX    oooo    ....",
"    ....    XXXX    ............    ....XXXXXXXX    oooo    ....",
"....    ooooXXXX............    ....oooo....XXXXoooo    oooo....",
"....    ooooXXXX............    ....oooo....XXXXoooo    oooo....",
"....    ooooXXXX............    ....oooo....XXXXoooo    oooo....",
"....    ooooXXXX............    ....oooo....XXXXoooo    oooo....",
"    ooooXXXX        ....    ............XXXX....XXXXoooo....    ",
"    ooooXXXX        ....    ............XXXX....XXXXoooo....    ",
"    ooooXXXX        ....    ............XXXX....XXXXoooo....    ",
"    ooooXXXX        ....    ............XXXX....XXXXoooo....    ",
"....XXXXoooooooo    oooo    ....    ooooooooXXXXooooXXXX    ....",
"....XXXXoooooooo    oooo    ....    ooooooooXXXXooooXXXX    ....",
"....XXXXoooooooo    oooo    ....    ooooooooXXXXooooXXXX    ....",
"....XXXXoooooooo    oooo    ....    ooooooooXXXXooooXXXX    ....",
"    XXXXXXXX    oooo    oooo    XXXXooooXXXXooooXXXXXXXX....    ",
"    XXXXXXXX    oooo    oooo    XXXXooooXXXXooooXXXXXXXX....    ",
"    XXXXXXXX    oooo    oooo    XXXXooooXXXXooooXXXXXXXX....    ",
"    XXXXXXXX    oooo    oooo    XXXXooooXXXXooooXXXXXXXX....    ",
"....    XXXXXXXX            ooooooooXXXX    XXXXXXXXoooo    ....",
"....    XXXXXXXX            ooooooooXXXX    XXXXXXXXoooo    ....",
"....    XXXXXXXX            ooooooooXXXX    XXXXXXXXoooo    ....",
"....    XXXXXXXX            ooooooooXXXX    XXXXXXXXoooo    ....",
"    XXXX    XXXXoooo    oooo    XXXXooooXXXXooooXXXXXXXXoooo    ",
"    XXXX    XXXXoooo    oooo    XXXXooooXXXXooooXXXXXXXXoooo    ",
"    XXXX    XXXXoooo    oooo    XXXXooooXXXXooooXXXXXXXXoooo    ",
"    XXXX    XXXXoooo    oooo    XXXXooooXXXXooooXXXXXXXXoooo    ",
"XXXXooooXXXXoooo    oooo    XXXX    XXXXooooXXXXooooXXXXXXXX    ",
"XXXXooooXXXXoooo    oooo    XXXX    XXXXooooXXXXooooXXXXXXXX    ",
"XXXXooooXXXXoooo    oooo    XXXX    XXXXooooXXXXooooXXXXXXXX    ",
"XXXXooooXXXXoooo    oooo    XXXX    XXXXooooXXXXooooXXXXXXXX    ",
"XXXXXXXX    XXXXooooXXXXoooo    XXXXXXXXXXXXooooXXXXXXXXXXXX....",
"XXXXXXXX    XXXXooooXXXXoooo    XXXXXXXXXXXXooooXXXXXXXXXXXX....",
"XXXXXXXX    XXXXooooXXXXoooo    XXXXXXXXXXXXooooXXXXXXXXXXXX....",
"XXXXXXXX    XXXXooooXXXXoooo    XXXXXXXXXXXXooooXXXXXXXXXXXX....",
"ooooXXXXXXXXooooXXXXooooXXXXXXXXooooXXXXXXXXXXXXXXXXXXXXoooo    ",
"ooooXXXXXXXXooooXXXXooooXXXXXXXXooooXXXXXXXXXXXXXXXXXXXXoooo    ",
"ooooXXXXXXXXooooXXXXooooXXXXXXXXooooXXXXXXXXXXXXXXXXXXXXoooo    ",
"ooooXXXXXXXXooooXXXXooooXXXXXXXXooooXXXXXXXXXXXXXXXXXXXXoooo    ",
"    ooooXXXXXXXXXXXXXXXXXXXXXXXXXXXXXXXXXXXXXXXXXXXXoooo    ....",
"    ooooXXXXXXXXXXXXXXXXXXXXXXXXXXXXXXXXXXXXXXXXXXXXoooo    ....",
"    ooooXXXXXXXXXXXXXXXXXXXXXXXXXXXXXXXXXXXXXXXXXXXXoooo    ....",
"    ooooXXXXXXXXXXXXXXXXXXXXXXXXXXXXXXXXXXXXXXXXXXXXoooo    ....",
"oooo    ooooXXXXXXXXXXXXXXXXooooooooXXXXXXXXXXXXoooo    oooo....",
"oooo    ooooXXXXXXXXXXXXXXXXooooooooXXXXXXXXXXXXoooo    oooo....",
"oooo    ooooXXXXXXXXXXXXXXXXooooooooXXXXXXXXXXXXoooo    oooo....",
"oooo    ooooXXXXXXXXXXXXXXXXooooooooXXXXXXXXXXXXoooo    oooo....",
"    oooo    ooooooooXXXXoooo        ooooXXXXoooo    oooo....    ",
"    oooo    ooooooooXXXXoooo        ooooXXXXoooo    oooo....    ",
"    oooo    ooooooooXXXXoooo        ooooXXXXoooo    oooo....    ",
"    oooo    ooooooooXXXXoooo        ooooXXXXoooo    oooo....    ",
"....    ....        ooooXXXXXXXXXXXXXXXXoooo        ....        ",
"....    ....        ooooXXXXXXXXXXXXXXXXoooo        ....        ",
"....    ....        ooooXXXXXXXXXXXXXXXXoooo        ....        ",
"....    ....        ooooXXXXXXXXXXXXXXXXoooo        ....        "
};
